<svg width="191" height="114" viewBox="0 0 191 114" fill="none" xmlns="http://www.w3.org/2000/svg">
<g clip-path="url(#clip0_7760_15973)">
<rect width="191" height="114" fill="#9A9C9D"/>
<g clip-path="url(#clip1_7760_15973)">
<path d="M94 63H98V67H94V63ZM98 59.71V61H94V58C94 57.4696 94.2107 56.9609 94.5858 56.5858C94.9609 56.2107 95.4696 56 96 56C96.5682 56 97.1246 55.8386 97.6047 55.5347C98.0847 55.2307 98.4685 54.7967 98.7115 54.2832C98.9546 53.7696 99.0467 53.1976 98.9774 52.6337C98.908 52.0698 98.6799 51.5372 98.3197 51.0978C97.9594 50.6585 97.4818 50.3305 96.9424 50.1519C96.4031 49.9734 95.8241 49.9517 95.2729 50.0894C94.7216 50.2271 94.2208 50.5185 93.8287 50.9296C93.4366 51.3408 93.1694 51.8549 93.058 52.412L89.134 51.626C89.3773 50.4102 89.939 49.2807 90.7618 48.3532C91.5847 47.4256 92.639 46.7332 93.8172 46.3466C94.9953 45.9601 96.255 45.8934 97.4674 46.1532C98.6798 46.4131 99.8014 46.9902 100.718 47.8256C101.634 48.6611 102.312 49.7248 102.682 50.9081C103.053 52.0914 103.102 53.3519 102.826 54.5606C102.549 55.7693 101.957 56.883 101.109 57.7877C100.261 58.6925 99.1883 59.3558 98 59.71V59.71ZM102 41H82V73H110V49H102V41ZM78 38.984C78 37.888 78.894 37 79.998 37H104L114 47V74.986C114.002 75.2486 113.952 75.5091 113.853 75.7524C113.754 75.9958 113.609 76.2173 113.424 76.4043C113.24 76.5913 113.02 76.7402 112.778 76.8424C112.536 76.9446 112.277 76.9982 112.014 77H79.986C79.4608 76.9963 78.958 76.7862 78.5864 76.415C78.2148 76.0437 78.0042 75.5412 78 75.016V38.984Z" fill="white"/>
</g>
</g>
<defs>
<clipPath id="clip0_7760_15973">
<rect width="191" height="114" fill="white"/>
</clipPath>
<clipPath id="clip1_7760_15973">
<rect width="48" height="48" fill="white" transform="translate(72 33)"/>
</clipPath>
</defs>
</svg>
