<svg width="191" height="114" viewBox="0 0 191 114" fill="none" xmlns="http://www.w3.org/2000/svg">
<g clip-path="url(#clip0_7725_16532)">
<rect width="191" height="114" fill="#316AD8"/>
<path d="M24.4048 55.9971V11.1971H44.7568C49.6208 11.1971 53.9088 12.1357 57.6208 14.0131C61.3328 15.8477 64.2341 18.4291 66.3248 21.7571C68.4154 25.0851 69.4608 29.0317 69.4608 33.5971C69.4608 38.1197 68.4154 42.0664 66.3248 45.4371C64.2341 48.7651 61.3328 51.3677 57.6208 53.2451C53.9088 55.0797 49.6208 55.9971 44.7568 55.9971H24.4048ZM34.7728 47.4851H44.2448C47.2314 47.4851 49.8128 46.9304 51.9888 45.8211C54.2074 44.6691 55.9141 43.0477 57.1088 40.9571C58.3461 38.8664 58.9648 36.4131 58.9648 33.5971C58.9648 30.7384 58.3461 28.2851 57.1088 26.2371C55.9141 24.1464 54.2074 22.5464 51.9888 21.4371C49.8128 20.2851 47.2314 19.7091 44.2448 19.7091H34.7728V47.4851ZM99.0398 56.7651C95.4984 56.7651 92.2131 56.1891 89.1838 55.0371C86.1971 53.8851 83.5944 52.2637 81.3758 50.1731C79.1998 48.0824 77.4931 45.6291 76.2558 42.8131C75.0611 39.9971 74.4638 36.9251 74.4638 33.5971C74.4638 30.2691 75.0611 27.1971 76.2558 24.3811C77.4931 21.5651 79.2211 19.1117 81.4398 17.0211C83.6584 14.9304 86.2611 13.3091 89.2478 12.1571C92.2344 11.0051 95.4771 10.4291 98.9758 10.4291C102.517 10.4291 105.76 11.0051 108.704 12.1571C111.69 13.3091 114.272 14.9304 116.448 17.0211C118.666 19.1117 120.394 21.5651 121.632 24.3811C122.869 27.1544 123.488 30.2264 123.488 33.5971C123.488 36.9251 122.869 40.0184 121.632 42.8771C120.394 45.6931 118.666 48.1464 116.448 50.2371C114.272 52.2851 111.69 53.8851 108.704 55.0371C105.76 56.1891 102.538 56.7651 99.0398 56.7651ZM98.9758 47.9331C100.981 47.9331 102.816 47.5917 104.48 46.9091C106.186 46.2264 107.68 45.2451 108.96 43.9651C110.24 42.6851 111.221 41.1704 111.904 39.4211C112.629 37.6717 112.992 35.7304 112.992 33.5971C112.992 31.4637 112.629 29.5224 111.904 27.7731C111.221 26.0237 110.24 24.5091 108.96 23.2291C107.722 21.9491 106.25 20.9677 104.544 20.2851C102.837 19.6024 100.981 19.2611 98.9758 19.2611C96.9704 19.2611 95.1144 19.6024 93.4078 20.2851C91.7438 20.9677 90.2718 21.9491 88.9918 23.2291C87.7118 24.5091 86.7091 26.0237 85.9838 27.7731C85.3011 29.5224 84.9598 31.4637 84.9598 33.5971C84.9598 35.6877 85.3011 37.6291 85.9838 39.4211C86.7091 41.1704 87.6904 42.6851 88.9278 43.9651C90.2078 45.2451 91.7011 46.2264 93.4078 46.9091C95.1144 47.5917 96.9704 47.9331 98.9758 47.9331ZM152.72 56.7651C149.264 56.7651 146.042 56.2104 143.056 55.1011C140.112 53.9491 137.552 52.3277 135.376 50.2371C133.2 48.1464 131.493 45.6931 130.256 42.8771C129.061 40.0611 128.464 36.9677 128.464 33.5971C128.464 30.2264 129.061 27.1331 130.256 24.3171C131.493 21.5011 133.2 19.0477 135.376 16.9571C137.594 14.8664 140.176 13.2664 143.12 12.1571C146.064 11.0051 149.285 10.4291 152.784 10.4291C156.666 10.4291 160.165 11.1117 163.28 12.4771C166.437 13.7997 169.082 15.7624 171.216 18.3651L164.56 24.5091C163.024 22.7597 161.317 21.4584 159.44 20.6051C157.562 19.7091 155.514 19.2611 153.296 19.2611C151.205 19.2611 149.285 19.6024 147.536 20.2851C145.786 20.9677 144.272 21.9491 142.992 23.2291C141.712 24.5091 140.709 26.0237 139.984 27.7731C139.301 29.5224 138.96 31.4637 138.96 33.5971C138.96 35.7304 139.301 37.6717 139.984 39.4211C140.709 41.1704 141.712 42.6851 142.992 43.9651C144.272 45.2451 145.786 46.2264 147.536 46.9091C149.285 47.5917 151.205 47.9331 153.296 47.9331C155.514 47.9331 157.562 47.5064 159.44 46.6531C161.317 45.7571 163.024 44.4131 164.56 42.6211L171.216 48.7651C169.082 51.3677 166.437 53.3517 163.28 54.7171C160.165 56.0824 156.645 56.7651 152.72 56.7651Z" fill="white" fill-opacity="0.3"/>
<path d="M24.4048 103.997V59.1971H44.7568C49.6208 59.1971 53.9088 60.1357 57.6208 62.0131C61.3328 63.8477 64.2341 66.4291 66.3248 69.7571C68.4154 73.0851 69.4608 77.0317 69.4608 81.5971C69.4608 86.1197 68.4154 90.0664 66.3248 93.4371C64.2341 96.7651 61.3328 99.3677 57.6208 101.245C53.9088 103.08 49.6208 103.997 44.7568 103.997H24.4048ZM34.7728 95.4851H44.2448C47.2314 95.4851 49.8128 94.9304 51.9888 93.8211C54.2074 92.6691 55.9141 91.0477 57.1088 88.9571C58.3461 86.8664 58.9648 84.4131 58.9648 81.5971C58.9648 78.7384 58.3461 76.2851 57.1088 74.2371C55.9141 72.1464 54.2074 70.5464 51.9888 69.4371C49.8128 68.2851 47.2314 67.7091 44.2448 67.7091H34.7728V95.4851ZM99.0398 104.765C95.4984 104.765 92.2131 104.189 89.1838 103.037C86.1971 101.885 83.5944 100.264 81.3758 98.1731C79.1998 96.0824 77.4931 93.6291 76.2558 90.8131C75.0611 87.9971 74.4638 84.9251 74.4638 81.5971C74.4638 78.2691 75.0611 75.1971 76.2558 72.3811C77.4931 69.5651 79.2211 67.1117 81.4398 65.0211C83.6584 62.9304 86.2611 61.3091 89.2478 60.1571C92.2344 59.0051 95.4771 58.4291 98.9758 58.4291C102.517 58.4291 105.76 59.0051 108.704 60.1571C111.69 61.3091 114.272 62.9304 116.448 65.0211C118.666 67.1117 120.394 69.5651 121.632 72.3811C122.869 75.1544 123.488 78.2264 123.488 81.5971C123.488 84.9251 122.869 88.0184 121.632 90.8771C120.394 93.6931 118.666 96.1464 116.448 98.2371C114.272 100.285 111.69 101.885 108.704 103.037C105.76 104.189 102.538 104.765 99.0398 104.765ZM98.9758 95.9331C100.981 95.9331 102.816 95.5917 104.48 94.9091C106.186 94.2264 107.68 93.2451 108.96 91.9651C110.24 90.6851 111.221 89.1704 111.904 87.4211C112.629 85.6717 112.992 83.7304 112.992 81.5971C112.992 79.4637 112.629 77.5224 111.904 75.7731C111.221 74.0237 110.24 72.5091 108.96 71.2291C107.722 69.9491 106.25 68.9677 104.544 68.2851C102.837 67.6024 100.981 67.2611 98.9758 67.2611C96.9704 67.2611 95.1144 67.6024 93.4078 68.2851C91.7438 68.9677 90.2718 69.9491 88.9918 71.2291C87.7118 72.5091 86.7091 74.0237 85.9838 75.7731C85.3011 77.5224 84.9598 79.4637 84.9598 81.5971C84.9598 83.6877 85.3011 85.6291 85.9838 87.4211C86.7091 89.1704 87.6904 90.6851 88.9278 91.9651C90.2078 93.2451 91.7011 94.2264 93.4078 94.9091C95.1144 95.5917 96.9704 95.9331 98.9758 95.9331ZM152.72 104.765C149.264 104.765 146.042 104.21 143.056 103.101C140.112 101.949 137.552 100.328 135.376 98.2371C133.2 96.1464 131.493 93.6931 130.256 90.8771C129.061 88.0611 128.464 84.9677 128.464 81.5971C128.464 78.2264 129.061 75.1331 130.256 72.3171C131.493 69.5011 133.2 67.0477 135.376 64.9571C137.594 62.8664 140.176 61.2664 143.12 60.1571C146.064 59.0051 149.285 58.4291 152.784 58.4291C156.666 58.4291 160.165 59.1117 163.28 60.4771C166.437 61.7997 169.082 63.7624 171.216 66.3651L164.56 72.5091C163.024 70.7597 161.317 69.4584 159.44 68.6051C157.562 67.7091 155.514 67.2611 153.296 67.2611C151.205 67.2611 149.285 67.6024 147.536 68.2851C145.786 68.9677 144.272 69.9491 142.992 71.2291C141.712 72.5091 140.709 74.0237 139.984 75.7731C139.301 77.5224 138.96 79.4637 138.96 81.5971C138.96 83.7304 139.301 85.6717 139.984 87.4211C140.709 89.1704 141.712 90.6851 142.992 91.9651C144.272 93.2451 145.786 94.2264 147.536 94.9091C149.285 95.5917 151.205 95.9331 153.296 95.9331C155.514 95.9331 157.562 95.5064 159.44 94.6531C161.317 93.7571 163.024 92.4131 164.56 90.6211L171.216 96.7651C169.082 99.3677 166.437 101.352 163.28 102.717C160.165 104.082 156.645 104.765 152.72 104.765Z" fill="white" fill-opacity="0.3"/>
<g clip-path="url(#clip1_7725_16532)">
<path d="M104 37L114 47V75.016C113.999 75.5424 113.79 76.047 113.418 76.419C113.045 76.791 112.54 77 112.014 77H79.986C79.4608 76.9963 78.958 76.7862 78.5864 76.415C78.2148 76.0438 78.0042 75.5412 78 75.016V38.984C78 37.888 78.89 37 79.986 37H104ZM100 49V58.978L96 55L92.02 59L92 49H88V65H92L96 61L100 65H104V49H100Z" fill="white"/>
</g>
</g>
<defs>
<clipPath id="clip0_7725_16532">
<rect width="191" height="114" fill="white"/>
</clipPath>
<clipPath id="clip1_7725_16532">
<rect width="48" height="48" fill="white" transform="translate(72 33)"/>
</clipPath>
</defs>
</svg>
