<svg width="191" height="114" viewBox="0 0 191 114" fill="none" xmlns="http://www.w3.org/2000/svg">
<g clip-path="url(#clip0_7725_16571)">
<rect width="191" height="114" fill="#57A1D7"/>
<path d="M35.561 55.9971V11.1971H45.929V55.9971H35.561ZM56.561 55.9971V11.1971H65.137L84.209 42.8131H79.665L98.417 11.1971H106.929L107.057 55.9971H97.329L97.265 26.1091H99.057L84.081 51.2611H79.409L64.113 26.1091H66.289V55.9971H56.561ZM139.318 56.7651C135.777 56.7651 132.513 56.2104 129.526 55.1011C126.582 53.9491 124.001 52.3277 121.782 50.2371C119.606 48.1464 117.899 45.6931 116.662 42.8771C115.467 40.0611 114.87 36.9677 114.87 33.5971C114.87 30.2264 115.467 27.1331 116.662 24.3171C117.899 21.5011 119.627 19.0477 121.846 16.9571C124.065 14.8664 126.667 13.2664 129.654 12.1571C132.641 11.0051 135.926 10.4291 139.51 10.4291C143.478 10.4291 147.041 11.0904 150.198 12.4131C153.398 13.7357 156.086 15.6557 158.262 18.1731L151.606 24.3171C149.985 22.6104 148.214 21.3517 146.294 20.5411C144.374 19.6877 142.283 19.2611 140.022 19.2611C137.846 19.2611 135.862 19.6024 134.07 20.2851C132.278 20.9677 130.721 21.9491 129.398 23.2291C128.118 24.5091 127.115 26.0237 126.39 27.7731C125.707 29.5224 125.366 31.4637 125.366 33.5971C125.366 35.6877 125.707 37.6077 126.39 39.3571C127.115 41.1064 128.118 42.6424 129.398 43.9651C130.721 45.2451 132.257 46.2264 134.006 46.9091C135.798 47.5917 137.761 47.9331 139.894 47.9331C141.942 47.9331 143.926 47.6131 145.846 46.9731C147.809 46.2904 149.707 45.1597 151.542 43.5811L157.43 51.0691C154.998 52.9037 152.161 54.3117 148.918 55.2931C145.718 56.2744 142.518 56.7651 139.318 56.7651ZM147.958 49.7251V32.8931H157.43V51.0691L147.958 49.7251Z" fill="white" fill-opacity="0.3"/>
<path d="M35.561 103.997V59.1971H45.929V103.997H35.561ZM56.561 103.997V59.1971H65.137L84.209 90.8131H79.665L98.417 59.1971H106.929L107.057 103.997H97.329L97.265 74.1091H99.057L84.081 99.2611H79.409L64.113 74.1091H66.289V103.997H56.561ZM139.318 104.765C135.777 104.765 132.513 104.21 129.526 103.101C126.582 101.949 124.001 100.328 121.782 98.2371C119.606 96.1464 117.899 93.6931 116.662 90.8771C115.467 88.0611 114.87 84.9677 114.87 81.5971C114.87 78.2264 115.467 75.1331 116.662 72.3171C117.899 69.5011 119.627 67.0477 121.846 64.9571C124.065 62.8664 126.667 61.2664 129.654 60.1571C132.641 59.0051 135.926 58.4291 139.51 58.4291C143.478 58.4291 147.041 59.0904 150.198 60.4131C153.398 61.7357 156.086 63.6557 158.262 66.1731L151.606 72.3171C149.985 70.6104 148.214 69.3517 146.294 68.5411C144.374 67.6877 142.283 67.2611 140.022 67.2611C137.846 67.2611 135.862 67.6024 134.07 68.2851C132.278 68.9677 130.721 69.9491 129.398 71.2291C128.118 72.5091 127.115 74.0237 126.39 75.7731C125.707 77.5224 125.366 79.4637 125.366 81.5971C125.366 83.6877 125.707 85.6077 126.39 87.3571C127.115 89.1064 128.118 90.6424 129.398 91.9651C130.721 93.2451 132.257 94.2264 134.006 94.9091C135.798 95.5917 137.761 95.9331 139.894 95.9331C141.942 95.9331 143.926 95.6131 145.846 94.9731C147.809 94.2904 149.707 93.1597 151.542 91.5811L157.43 99.0691C154.998 100.904 152.161 102.312 148.918 103.293C145.718 104.274 142.518 104.765 139.318 104.765ZM147.958 97.7251V80.8931H157.43V99.0691L147.958 97.7251Z" fill="white" fill-opacity="0.3"/>
<g clip-path="url(#clip1_7725_16571)">
<path d="M82 55.2L86 51.2L97 62.2L104 55.2L110 61.2V43H82V55.2ZM80 39H112C112.53 39 113.039 39.2107 113.414 39.5858C113.789 39.9609 114 40.4696 114 41V73C114 73.5304 113.789 74.0391 113.414 74.4142C113.039 74.7893 112.53 75 112 75H80C79.4696 75 78.9609 74.7893 78.5858 74.4142C78.2107 74.0391 78 73.5304 78 73V41C78 40.4696 78.2107 39.9609 78.5858 39.5858C78.9609 39.2107 79.4696 39 80 39ZM103 53C102.204 53 101.441 52.6839 100.879 52.1213C100.316 51.5587 100 50.7956 100 50C100 49.2044 100.316 48.4413 100.879 47.8787C101.441 47.3161 102.204 47 103 47C103.796 47 104.559 47.3161 105.121 47.8787C105.684 48.4413 106 49.2044 106 50C106 50.7956 105.684 51.5587 105.121 52.1213C104.559 52.6839 103.796 53 103 53Z" fill="white"/>
</g>
</g>
<defs>
<clipPath id="clip0_7725_16571">
<rect width="191" height="114" fill="white"/>
</clipPath>
<clipPath id="clip1_7725_16571">
<rect width="48" height="48" fill="white" transform="translate(72 33)"/>
</clipPath>
</defs>
</svg>
