<?xml version="1.0" standalone="no"?>
<!DOCTYPE svg PUBLIC "-//W3C//DTD SVG 20010904//EN"
 "http://www.w3.org/TR/2001/REC-SVG-20010904/DTD/svg10.dtd">
<svg version="1.0" xmlns="http://www.w3.org/2000/svg"
 width="8333.000000pt" height="8333.000000pt" viewBox="0 0 8333.000000 8333.000000"
 preserveAspectRatio="xMidYMid meet">

<g transform="translate(0.000000,8333.000000) scale(0.100000,-0.100000)"
fill="#000000" stroke="none">
<path d="M41660 44900 l0 -9790 138 0 c180 0 707 17 947 30 3178 175 6230
1108 8960 2738 4036 2411 7088 6218 8558 10677 629 1908 952 3850 980 5903 l3
232 -9793 0 -9793 0 0 -9790z"/>
<path d="M60365 35059 c-5204 -181 -10141 -1869 -14350 -4907 -1736 -1254
-3375 -2782 -4754 -4432 -1495 -1791 -2750 -3785 -3713 -5905 -96 -211 -329
-751 -399 -922 l-33 -83 -7513 0 -7513 0 0 -4875 0 -4875 19580 0 19580 0 0
13005 0 13005 -327 -2 c-181 0 -431 -5 -558 -9z"/>
</g>
</svg>
