<svg width="191" height="115" viewBox="0 0 191 115" fill="none" xmlns="http://www.w3.org/2000/svg">
<g clip-path="url(#clip0_7725_16446)">
<rect x="0.000976562" y="0.00292969" width="191" height="114" fill="#D74343"/>
<path d="M31.312 56V11.2H50.704C54.7147 11.2 58.1707 11.8613 61.072 13.184C63.9733 14.464 66.2133 16.32 67.792 18.752C69.3707 21.184 70.16 24.0853 70.16 27.456C70.16 30.784 69.3707 33.664 67.792 36.096C66.2133 38.528 63.9733 40.4053 61.072 41.728C58.1707 43.008 54.7147 43.648 50.704 43.648H37.072L41.68 38.976V56H31.312ZM41.68 40.128L37.072 35.2H50.128C53.328 35.2 55.7173 34.5173 57.296 33.152C58.8747 31.7867 59.664 29.888 59.664 27.456C59.664 24.9813 58.8747 23.0613 57.296 21.696C55.7173 20.3307 53.328 19.648 50.128 19.648H37.072L41.68 14.72V40.128ZM77.562 56V11.2H97.914C102.778 11.2 107.066 12.1387 110.778 14.016C114.49 15.8507 117.391 18.432 119.482 21.76C121.573 25.088 122.618 29.0347 122.618 33.6C122.618 38.1227 121.573 42.0693 119.482 45.44C117.391 48.768 114.49 51.3707 110.778 53.248C107.066 55.0827 102.778 56 97.914 56H77.562ZM87.93 47.488H97.402C100.389 47.488 102.97 46.9333 105.146 45.824C107.365 44.672 109.071 43.0507 110.266 40.96C111.503 38.8693 112.122 36.416 112.122 33.6C112.122 30.7413 111.503 28.288 110.266 26.24C109.071 24.1493 107.365 22.5493 105.146 21.44C102.97 20.288 100.389 19.712 97.402 19.712H87.93V47.488ZM140.037 31.36H161.541V39.68H140.037V31.36ZM140.805 56H130.437V11.2H164.293V19.52H140.805V56Z" fill="white" fill-opacity="0.3"/>
<path d="M31.312 104V59.2H50.704C54.7147 59.2 58.1707 59.8613 61.072 61.184C63.9733 62.464 66.2133 64.32 67.792 66.752C69.3707 69.184 70.16 72.0853 70.16 75.456C70.16 78.784 69.3707 81.664 67.792 84.096C66.2133 86.528 63.9733 88.4053 61.072 89.728C58.1707 91.008 54.7147 91.648 50.704 91.648H37.072L41.68 86.976V104H31.312ZM41.68 88.128L37.072 83.2H50.128C53.328 83.2 55.7173 82.5173 57.296 81.152C58.8747 79.7867 59.664 77.888 59.664 75.456C59.664 72.9813 58.8747 71.0613 57.296 69.696C55.7173 68.3307 53.328 67.648 50.128 67.648H37.072L41.68 62.72V88.128ZM77.562 104V59.2H97.914C102.778 59.2 107.066 60.1387 110.778 62.016C114.49 63.8507 117.391 66.432 119.482 69.76C121.573 73.088 122.618 77.0347 122.618 81.6C122.618 86.1227 121.573 90.0693 119.482 93.44C117.391 96.768 114.49 99.3707 110.778 101.248C107.066 103.083 102.778 104 97.914 104H77.562ZM87.93 95.488H97.402C100.389 95.488 102.97 94.9333 105.146 93.824C107.365 92.672 109.071 91.0507 110.266 88.96C111.503 86.8693 112.122 84.416 112.122 81.6C112.122 78.7413 111.503 76.288 110.266 74.24C109.071 72.1493 107.365 70.5493 105.146 69.44C102.97 68.288 100.389 67.712 97.402 67.712H87.93V95.488ZM140.037 79.36H161.541V87.68H140.037V79.36ZM140.805 104H130.437V59.2H164.293V67.52H140.805V104Z" fill="white" fill-opacity="0.3"/>
<g clip-path="url(#clip1_7725_16446)">
<path d="M104 37L114 47V75.016C113.999 75.5424 113.79 76.047 113.418 76.419C113.045 76.791 112.54 77 112.014 77H79.986C79.4608 76.9963 78.958 76.7862 78.5864 76.415C78.2148 76.0438 78.0042 75.5412 78 75.016V38.984C78 37.888 78.89 37 79.986 37H104ZM96 65C98.1217 65 100.157 64.1571 101.657 62.6569C103.157 61.1566 104 59.1217 104 57C104 54.8783 103.157 52.8434 101.657 51.3431C100.157 49.8429 98.1217 49 96 49H88V65H96ZM92 53H96C97.0609 53 98.0783 53.4214 98.8284 54.1716C99.5786 54.9217 100 55.9391 100 57C100 58.0609 99.5786 59.0783 98.8284 59.8284C98.0783 60.5786 97.0609 61 96 61H92V53Z" fill="white"/>
</g>
</g>
<defs>
<clipPath id="clip0_7725_16446">
<rect width="191" height="114" fill="white" transform="translate(0.000976562 0.00292969)"/>
</clipPath>
<clipPath id="clip1_7725_16446">
<rect width="48" height="48" fill="white" transform="translate(72 33)"/>
</clipPath>
</defs>
</svg>
