<svg width="191" height="114" viewBox="0 0 191 114" fill="none" xmlns="http://www.w3.org/2000/svg">
<g clip-path="url(#clip0_7725_16560)">
<rect width="191" height="114" fill="#D1BD04"/>
<path d="M36.3735 55.9971V11.1971H55.7655C59.7762 11.1971 63.2322 11.8584 66.1335 13.1811C69.0349 14.4611 71.2749 16.3171 72.8535 18.7491C74.4322 21.1811 75.2215 24.0824 75.2215 27.4531C75.2215 30.7811 74.4322 33.6611 72.8535 36.0931C71.2749 38.5251 69.0349 40.4024 66.1335 41.7251C63.2322 43.0051 59.7762 43.6451 55.7655 43.6451H42.1335L46.7415 38.9731V55.9971H36.3735ZM46.7415 40.1251L42.1335 35.1971H55.1895C58.3895 35.1971 60.7789 34.5144 62.3575 33.1491C63.9362 31.7837 64.7255 29.8851 64.7255 27.4531C64.7255 24.9784 63.9362 23.0584 62.3575 21.6931C60.7789 20.3277 58.3895 19.6451 55.1895 19.6451H42.1335L46.7415 14.7171V40.1251ZM82.6235 55.9971V11.1971H102.016C106.026 11.1971 109.482 11.8584 112.384 13.1811C115.285 14.4611 117.525 16.3171 119.104 18.7491C120.682 21.1811 121.472 24.0824 121.472 27.4531C121.472 30.7811 120.682 33.6611 119.104 36.0931C117.525 38.5251 115.285 40.4024 112.384 41.7251C109.482 43.0051 106.026 43.6451 102.016 43.6451H88.3835L92.9915 38.9731V55.9971H82.6235ZM92.9915 40.1251L88.3835 35.1971H101.44C104.64 35.1971 107.029 34.5144 108.608 33.1491C110.186 31.7837 110.976 29.8851 110.976 27.4531C110.976 24.9784 110.186 23.0584 108.608 21.6931C107.029 20.3277 104.64 19.6451 101.44 19.6451H88.3835L92.9915 14.7171V40.1251ZM136.966 55.9971V19.6451H122.63V11.1971H161.67V19.6451H147.334V55.9971H136.966Z" fill="white" fill-opacity="0.3"/>
<path d="M36.3735 103.997V59.1971H55.7655C59.7762 59.1971 63.2322 59.8584 66.1335 61.1811C69.0349 62.4611 71.2749 64.3171 72.8535 66.7491C74.4322 69.1811 75.2215 72.0824 75.2215 75.4531C75.2215 78.7811 74.4322 81.6611 72.8535 84.0931C71.2749 86.5251 69.0349 88.4024 66.1335 89.7251C63.2322 91.0051 59.7762 91.6451 55.7655 91.6451H42.1335L46.7415 86.9731V103.997H36.3735ZM46.7415 88.1251L42.1335 83.1971H55.1895C58.3895 83.1971 60.7789 82.5144 62.3575 81.1491C63.9362 79.7837 64.7255 77.8851 64.7255 75.4531C64.7255 72.9784 63.9362 71.0584 62.3575 69.6931C60.7789 68.3277 58.3895 67.6451 55.1895 67.6451H42.1335L46.7415 62.7171V88.1251ZM82.6235 103.997V59.1971H102.016C106.026 59.1971 109.482 59.8584 112.384 61.1811C115.285 62.4611 117.525 64.3171 119.104 66.7491C120.682 69.1811 121.472 72.0824 121.472 75.4531C121.472 78.7811 120.682 81.6611 119.104 84.0931C117.525 86.5251 115.285 88.4024 112.384 89.7251C109.482 91.0051 106.026 91.6451 102.016 91.6451H88.3835L92.9915 86.9731V103.997H82.6235ZM92.9915 88.1251L88.3835 83.1971H101.44C104.64 83.1971 107.029 82.5144 108.608 81.1491C110.186 79.7837 110.976 77.8851 110.976 75.4531C110.976 72.9784 110.186 71.0584 108.608 69.6931C107.029 68.3277 104.64 67.6451 101.44 67.6451H88.3835L92.9915 62.7171V88.1251ZM136.966 103.997V67.6451H122.63V59.1971H161.67V67.6451H147.334V103.997H136.966Z" fill="white" fill-opacity="0.3"/>
<g clip-path="url(#clip1_7725_16560)">
<path d="M104 37L114 47V75.016C113.999 75.5424 113.79 76.047 113.418 76.419C113.045 76.791 112.54 77 112.014 77H79.986C79.4608 76.9963 78.958 76.7862 78.5864 76.415C78.2148 76.0438 78.0042 75.5412 78 75.016V38.984C78 37.888 78.89 37 79.986 37H104ZM88 49V65H92V61H104V49H88ZM92 53H100V57H92V53Z" fill="white"/>
</g>
</g>
<defs>
<clipPath id="clip0_7725_16560">
<rect width="191" height="114" fill="white"/>
</clipPath>
<clipPath id="clip1_7725_16560">
<rect width="48" height="48" fill="white" transform="translate(72 33)"/>
</clipPath>
</defs>
</svg>
