<svg width="191" height="114" viewBox="0 0 191 114" fill="none" xmlns="http://www.w3.org/2000/svg">
<g clip-path="url(#clip0_7725_16548)">
<rect width="191" height="114" fill="#0F8E51"/>
<path d="M34.441 55.9971L53.705 29.4371V36.9891L35.273 11.1971H47.049L59.785 29.1811L54.857 29.2451L67.401 11.1971H78.665L60.361 36.5411V29.1171L79.753 55.9971H67.785L54.601 36.9891H59.337L46.345 55.9971H34.441ZM83.811 55.9971V11.1971H94.179V47.5491H116.643V55.9971H83.811ZM136.969 56.7651C133.385 56.7651 129.95 56.2957 126.665 55.3571C123.379 54.3757 120.734 53.1171 118.729 51.5811L122.249 43.7731C124.169 45.1384 126.43 46.2691 129.033 47.1651C131.678 48.0184 134.345 48.4451 137.033 48.4451C139.081 48.4451 140.723 48.2531 141.961 47.8691C143.241 47.4424 144.179 46.8664 144.777 46.1411C145.374 45.4157 145.673 44.5837 145.673 43.6451C145.673 42.4504 145.203 41.5117 144.265 40.8291C143.326 40.1037 142.089 39.5277 140.553 39.1011C139.017 38.6317 137.31 38.2051 135.433 37.8211C133.598 37.3944 131.742 36.8824 129.865 36.2851C128.03 35.6877 126.345 34.9197 124.809 33.9811C123.273 33.0424 122.014 31.8051 121.033 30.2691C120.094 28.7331 119.625 26.7704 119.625 24.3811C119.625 21.8211 120.307 19.4957 121.673 17.4051C123.081 15.2717 125.171 13.5864 127.945 12.3491C130.761 11.0691 134.281 10.4291 138.505 10.4291C141.321 10.4291 144.094 10.7704 146.825 11.4531C149.555 12.0931 151.966 13.0744 154.057 14.3971L150.857 22.2691C148.766 21.0744 146.675 20.1997 144.585 19.6451C142.494 19.0477 140.446 18.7491 138.441 18.7491C136.435 18.7491 134.793 18.9837 133.513 19.4531C132.233 19.9224 131.315 20.5411 130.761 21.3091C130.206 22.0344 129.929 22.8877 129.929 23.8691C129.929 25.0211 130.398 25.9597 131.337 26.6851C132.275 27.3677 133.513 27.9224 135.049 28.3491C136.585 28.7757 138.27 29.2024 140.105 29.6291C141.982 30.0557 143.838 30.5464 145.673 31.1011C147.55 31.6557 149.257 32.4024 150.793 33.3411C152.329 34.2797 153.566 35.5171 154.505 37.0531C155.486 38.5891 155.977 40.5304 155.977 42.8771C155.977 45.3944 155.273 47.6984 153.865 49.7891C152.457 51.8797 150.345 53.5651 147.529 54.8451C144.755 56.1251 141.235 56.7651 136.969 56.7651Z" fill="white" fill-opacity="0.3"/>
<path d="M34.441 103.997L53.705 77.4371V84.9891L35.273 59.1971H47.049L59.785 77.1811L54.857 77.2451L67.401 59.1971H78.665L60.361 84.5411V77.1171L79.753 103.997H67.785L54.601 84.9891H59.337L46.345 103.997H34.441ZM83.811 103.997V59.1971H94.179V95.5491H116.643V103.997H83.811ZM136.969 104.765C133.385 104.765 129.95 104.296 126.665 103.357C123.379 102.376 120.734 101.117 118.729 99.5811L122.249 91.7731C124.169 93.1384 126.43 94.2691 129.033 95.1651C131.678 96.0184 134.345 96.4451 137.033 96.4451C139.081 96.4451 140.723 96.2531 141.961 95.8691C143.241 95.4424 144.179 94.8664 144.777 94.1411C145.374 93.4157 145.673 92.5837 145.673 91.6451C145.673 90.4504 145.203 89.5117 144.265 88.8291C143.326 88.1037 142.089 87.5277 140.553 87.1011C139.017 86.6317 137.31 86.2051 135.433 85.8211C133.598 85.3944 131.742 84.8824 129.865 84.2851C128.03 83.6877 126.345 82.9197 124.809 81.9811C123.273 81.0424 122.014 79.8051 121.033 78.2691C120.094 76.7331 119.625 74.7704 119.625 72.3811C119.625 69.8211 120.307 67.4957 121.673 65.4051C123.081 63.2717 125.171 61.5864 127.945 60.3491C130.761 59.0691 134.281 58.4291 138.505 58.4291C141.321 58.4291 144.094 58.7704 146.825 59.4531C149.555 60.0931 151.966 61.0744 154.057 62.3971L150.857 70.2691C148.766 69.0744 146.675 68.1997 144.585 67.6451C142.494 67.0477 140.446 66.7491 138.441 66.7491C136.435 66.7491 134.793 66.9837 133.513 67.4531C132.233 67.9224 131.315 68.5411 130.761 69.3091C130.206 70.0344 129.929 70.8877 129.929 71.8691C129.929 73.0211 130.398 73.9597 131.337 74.6851C132.275 75.3677 133.513 75.9224 135.049 76.3491C136.585 76.7757 138.27 77.2024 140.105 77.6291C141.982 78.0557 143.838 78.5464 145.673 79.1011C147.55 79.6557 149.257 80.4024 150.793 81.3411C152.329 82.2797 153.566 83.5171 154.505 85.0531C155.486 86.5891 155.977 88.5304 155.977 90.8771C155.977 93.3944 155.273 95.6984 153.865 97.7891C152.457 99.8797 150.345 101.565 147.529 102.845C144.755 104.125 141.235 104.765 136.969 104.765Z" fill="white" fill-opacity="0.3"/>
<g clip-path="url(#clip1_7725_16548)">
<path d="M104 37L114 47V75.016C113.999 75.5424 113.79 76.047 113.418 76.419C113.045 76.791 112.54 77 112.014 77H79.986C79.4608 76.9963 78.958 76.7862 78.5864 76.415C78.2148 76.0438 78.0042 75.5412 78 75.016V38.984C78 37.888 78.89 37 79.986 37H104ZM98.4 57L104 49H99.2L96 53.572L92.8 49H88L93.6 57L88 65H92.8L96 60.428L99.2 65H104L98.4 57Z" fill="white"/>
</g>
</g>
<defs>
<clipPath id="clip0_7725_16548">
<rect width="191" height="114" fill="white"/>
</clipPath>
<clipPath id="clip1_7725_16548">
<rect width="48" height="48" fill="white" transform="translate(72 33)"/>
</clipPath>
</defs>
</svg>
