<svg width="27" height="34" viewBox="0 0 27 34" fill="none" xmlns="http://www.w3.org/2000/svg">
<path d="M24.9993 15.1656C25.5659 15.1656 26.1159 15.2156 26.6659 15.2989V3.49925C26.6659 1.66597 25.1659 0.166016 23.3326 0.166016H3.33323C1.49996 0.166016 0 1.66597 0 3.49925V30.1651C0 31.9984 1.49996 33.4984 3.33323 33.4984H15.4329C14.2121 31.7502 13.4941 29.7008 13.357 27.573C13.2199 25.4452 13.669 23.3206 14.6554 21.4303C15.6418 19.54 17.1277 17.9564 18.9515 16.8519C20.7753 15.7473 22.8671 15.164 24.9993 15.1656ZM6.66647 15.1656V3.49925H14.9996V15.1656L10.833 12.6656L6.66647 15.1656Z" fill="#FAFAFA"/>
</svg>
