<svg width="60" height="60" viewBox="0 0 60 60" fill="none" xmlns="http://www.w3.org/2000/svg">
<rect x="0.5" y="0.5" width="59" height="59" rx="10" fill="#3AAA35"/>
<path d="M28.4499 38.5915L23.6346 33.8422L25.2836 32.1931L28.4499 35.3593L34.5844 29.2247L36.1675 30.8738L28.4499 38.5915ZM20.2375 43.8356C19.5119 43.8356 18.8742 43.5552 18.3245 42.9945C17.7748 42.4339 17.5 41.8017 17.5 41.0981V20.9134C17.5 20.1658 17.7748 19.5172 18.3245 18.9675C18.8742 18.4178 19.5119 18.143 20.2375 18.143H22.0515V16.1641H24.657V18.143H35.343V16.1641H37.9485V18.143H39.7625C40.4881 18.143 41.1258 18.4178 41.6755 18.9675C42.2252 19.5172 42.5 20.1658 42.5 20.9134V41.0981C42.5 41.8017 42.2252 42.4339 41.6755 42.9945C41.1258 43.5552 40.4881 43.8356 39.7625 43.8356H20.2375ZM20.2375 41.0981H39.7625V26.949H20.2375V41.0981Z" fill="#FFFBFE"/>
</svg>
