<svg width="257" height="166" viewBox="0 0 257 166" fill="none" xmlns="http://www.w3.org/2000/svg">
<ellipse cx="128.5" cy="145.5" rx="128.5" ry="20.5" fill="#D9D9D9"/>
<path d="M174.615 140.406L179.898 139.456L176.729 115.525L170.938 117.706L174.615 140.406Z" fill="#FFBE9D"/>
<path d="M157.703 141.364H163.072L163.686 124.388L158.027 124.6L157.703 141.364Z" fill="#FFBE9D"/>
<path d="M151.112 149.751H163.072V141.364H157.703C157.601 144.137 154.469 146.077 154.469 146.077C151.154 147.464 151.112 149.751 151.112 149.751Z" fill="#2F2E41"/>
<path opacity="0.2" d="M151.112 149.751H163.072V149.044H157.798C157.798 149.044 157.53 146.632 154.48 146.077C151.154 147.463 151.112 149.751 151.112 149.751Z" fill="black"/>
<path d="M169.609 149.823L181.391 147.709L179.91 139.456L174.627 140.406C175.015 143.153 172.287 145.613 172.287 145.613C169.244 147.565 169.609 149.823 169.609 149.823Z" fill="#2F2E41"/>
<path opacity="0.2" d="M169.609 149.823L181.391 147.709L181.266 147.016L176.075 147.94C176.075 147.94 175.382 145.613 172.287 145.606C169.244 147.566 169.609 149.823 169.609 149.823Z" fill="black"/>
<path d="M185.721 149.444L197.676 149.751L197.89 141.367L192.524 141.23C192.351 144.003 189.181 145.851 189.181 145.851C185.82 147.17 185.721 149.444 185.721 149.444Z" fill="#106FA4"/>
<path opacity="0.2" d="M185.721 149.444L197.676 149.751L197.694 149.044L192.422 148.908C192.422 148.908 192.214 146.491 189.188 145.858C185.82 147.171 185.721 149.444 185.721 149.444Z" fill="black"/>
<path d="M209.473 149.751L221.188 147.348L219.508 139.133L214.25 140.212C214.713 142.947 212.037 145.475 212.037 145.475C209.055 147.501 209.473 149.751 209.473 149.751Z" fill="#106FA4"/>
<path opacity="0.2" d="M209.473 149.751L221.188 147.348L221.047 146.655L215.879 147.715C215.879 147.715 215.133 145.405 212.033 145.474C209.055 147.5 209.473 149.751 209.473 149.751Z" fill="black"/>
<path d="M184.189 125.328C182.932 126.631 180.296 128.318 175.819 126.698C175.819 126.698 169.249 130.268 162.963 126.271C162.963 126.271 157.029 127.065 152.54 125.963C151.94 125.812 151.416 125.447 151.066 124.936C150.716 124.426 150.564 123.805 150.639 123.191L156.093 76.1148L157.74 65.9723L173.516 64.124C173.516 64.124 177.607 67.2199 180.25 81.9416C182.354 93.6413 183.68 110.981 183.68 110.981L184.976 122.976C185.026 123.402 184.981 123.833 184.845 124.24C184.708 124.646 184.484 125.018 184.189 125.328Z" fill="#106FA4"/>
<path d="M151.591 59.2637C151.873 58.395 155.546 59.3954 155.862 59.4578C156.179 59.5202 156.283 59.065 155.994 59.0234C155.576 58.9657 151.224 58.2494 151.487 57.3923C151.637 56.9302 152.462 57.2652 152.462 57.2652C152.462 57.2652 156.486 58.2379 156.595 57.829C156.703 57.42 154.363 56.7639 153.559 56.6045C152.755 56.4451 152.515 55.9992 152.88 55.7057C153.127 55.507 155.606 55.9368 156.398 56.1262C157.191 56.3157 159.358 56.8401 158.505 55.7104C157.653 54.5806 157.419 53.3838 157.581 53.0211C157.627 52.9415 157.697 52.8783 157.781 52.8401C157.864 52.8019 157.958 52.7906 158.048 52.8079C158.138 52.8251 158.221 52.87 158.285 52.9364C158.348 53.0027 158.39 53.0872 158.404 53.1782C158.554 53.6338 158.767 54.0661 159.036 54.4628C159.24 54.7937 159.501 55.0862 159.806 55.3268C160.152 55.6018 160.455 55.8236 160.73 56.0038C162.698 56.1863 169.97 56.1794 174.879 54.5944C176.057 54.2179 181.299 44.7754 181.299 44.7754L187.65 49.001L183.26 56.7084C179.301 65.3192 159.344 61.5925 159.344 61.5925C157.823 61.6638 156.3 61.653 154.781 61.5602C152.681 61.3407 152.702 61.1536 152.767 60.9133C152.947 60.2664 156.463 61.1582 155.825 60.5367C155.188 59.9152 151.36 59.9314 151.591 59.2637Z" fill="#F7A48B"/>
<path d="M209.627 50.3172C209.027 49.6241 206.044 51.9922 205.779 52.1771C205.513 52.3619 205.236 51.9784 205.488 51.8282C205.864 51.611 209.567 49.2406 208.985 48.5567C208.66 48.1801 208.038 48.8224 208.038 48.8224C208.038 48.8224 204.723 51.2899 204.455 50.9687C204.187 50.6476 206.086 49.1204 206.765 48.6468C207.444 48.1732 207.486 47.6811 207.036 47.554C206.726 47.4662 204.624 48.8501 203.963 49.3261C203.302 49.802 201.524 51.1443 201.865 49.7696C202.207 48.395 201.949 47.2075 201.655 46.9325C201.362 46.6576 200.879 46.9718 200.962 47.3946C201.004 47.8709 200.979 48.3506 200.888 48.8201C200.826 49.2061 200.699 49.5787 200.512 49.9221C200.302 50.2964 200.11 50.6314 199.937 50.9017C198.199 51.849 192.752 54.5798 187.603 55.0604C186.97 55.1507 186.324 55.0916 185.718 54.8878C185.112 54.684 184.562 54.3411 184.112 53.8867L181.391 50.6476L176.131 54.6653C176.131 54.6653 177.773 56.7031 180.058 59.4616C186.041 66.6746 203.448 55.5178 203.448 55.5178V55.4994C204.871 54.9638 206.264 54.353 207.622 53.6695C209.47 52.6437 209.376 52.4751 209.219 52.2833C208.8 51.7612 205.908 53.9653 206.255 53.1312C206.601 52.2972 210.089 50.844 209.627 50.3172Z" fill="#F9B499"/>
<path d="M134.29 73.2821C134.207 72.4735 137.557 71.9721 137.834 71.9075C138.111 71.8428 138.035 71.4338 137.783 71.5055C137.425 71.6071 133.625 72.5867 133.537 71.7943C133.489 71.3553 134.29 71.3322 134.29 71.3322C134.29 71.3322 137.91 70.6783 137.857 70.3064C137.804 69.9344 135.665 70.2394 134.951 70.3965C134.237 70.5536 133.884 70.2763 134.076 69.909C134.207 69.6572 136.386 69.1281 137.079 68.9848C137.772 68.8416 139.74 68.5043 138.64 67.8874C137.541 67.2706 136.924 66.3857 136.924 66.0391C136.931 65.9567 136.965 65.8787 137.019 65.8164C137.074 65.7541 137.147 65.7106 137.227 65.6922C137.308 65.6737 137.393 65.6813 137.469 65.7137C137.545 65.7461 137.609 65.8018 137.652 65.8728C137.937 66.19 138.265 66.466 138.626 66.693C138.909 66.8848 139.221 67.0291 139.55 67.1204C139.927 67.2174 140.257 67.289 140.539 67.3514C142.207 66.7946 148.112 64.1839 151.554 61.1296C152.372 60.4018 153.254 50.8369 153.254 50.8369L159.937 51.9921L159.117 59.8473C158.985 68.2709 141.41 72.3996 141.41 72.3996V72.3811C140.198 72.9858 138.954 73.5257 137.684 73.9983C135.896 74.569 135.836 74.4119 135.806 74.1947C135.725 73.6033 138.913 73.0673 138.157 72.7808C137.402 72.4943 134.369 73.9013 134.29 73.2821Z" fill="#F9B499"/>
<path d="M159.122 39.8818L158.985 39.9419C158.235 40.2815 154.617 42.1737 152.748 47.9935L150.669 54.5041L157.331 54.3609" fill="#2F2E41"/>
<path d="M154.132 49.8735C153.906 50.8189 153.792 51.7873 153.79 52.7592C153.941 54.3264 154.625 55.7943 155.728 56.9178L155.756 56.9479L157.334 68.1601L174.819 65.7088L173.581 63.2621C173.194 62.4984 173.045 61.6369 173.151 60.7877L174.094 53.2397L175.547 55.1781L181.749 50.5435L180.005 47.0387C179.284 45.5347 178.27 43.7464 177.201 42.6097C175.662 41.02 173.638 39.9877 171.449 39.6756C169.887 39.4307 168.376 39.3359 168.376 39.3359L161.649 39.8604C161.333 39.9297 162.488 39.8373 159.129 39.8974L154.132 49.8897" fill="#2F2E41"/>
<path d="M156.53 58.1285C156.41 58.0467 156.3 57.9496 156.204 57.8397C155.93 57.5566 155.678 57.2522 155.451 56.9294C154.701 55.8548 154.209 54.6214 154.014 53.3253C153.819 52.0292 153.926 50.7056 154.326 49.4577C154.444 49.0822 154.591 48.7167 154.767 48.3649C154.826 48.229 154.904 48.1022 154.999 47.9883C155.033 47.9883 154.74 48.5474 154.476 49.4923C154.126 50.7251 154.045 52.0188 154.239 53.2857C154.433 54.5525 154.897 55.7628 155.599 56.8347C155.878 57.288 156.189 57.7205 156.53 58.1285Z" fill="#2F2E41"/>
<path opacity="0.2" d="M156.53 58.1285C156.41 58.0467 156.3 57.9496 156.204 57.8397C155.93 57.5566 155.678 57.2522 155.451 56.9294C154.701 55.8548 154.209 54.6214 154.014 53.3253C153.819 52.0292 153.926 50.7056 154.326 49.4577C154.444 49.0822 154.591 48.7167 154.767 48.3649C154.826 48.229 154.904 48.1022 154.999 47.9883C155.033 47.9883 154.74 48.5474 154.476 49.4923C154.126 50.7251 154.045 52.0188 154.239 53.2857C154.433 54.5525 154.897 55.7628 155.599 56.8347C155.878 57.288 156.189 57.7205 156.53 58.1285Z" fill="black"/>
<path d="M173.012 67.8809C173.033 67.9021 173.049 67.9273 173.061 67.9548C173.098 68.0195 173.139 68.0957 173.188 68.1858C173.327 68.4964 173.422 68.8256 173.467 69.1631C173.563 70.4212 173.233 71.6748 172.532 72.7234C172.054 73.4396 171.503 74.1047 170.889 74.708C170.189 75.392 169.524 76.1106 168.895 76.8613C168.233 77.7103 167.716 78.6636 167.366 79.6822C166.99 80.7381 166.705 81.8678 166.412 83.0276C166.151 84.1681 165.805 85.2872 165.375 86.3753C164.952 87.3875 164.383 88.3324 163.686 89.1801C163.059 89.9452 162.337 90.6276 161.538 91.2109C160.833 91.7146 160.078 92.1421 159.283 92.4863C158.136 92.9752 156.911 93.2583 155.665 93.3226H155.083L154.656 93.2972L154.393 93.2787H155.086C155.252 93.2787 155.462 93.2556 155.663 93.2441C156.894 93.1544 158.101 92.8559 159.232 92.3615C160.006 92.011 160.742 91.583 161.429 91.0839C162.213 90.5016 162.922 89.8241 163.538 89.0669C164.217 88.2313 164.772 87.3022 165.185 86.3083C165.608 85.2278 165.952 84.1183 166.216 82.9883C166.477 81.8456 166.798 80.7174 167.177 79.6083C167.537 78.5712 168.066 77.6008 168.743 76.7365C169.38 75.9858 170.055 75.2679 170.764 74.5855C171.377 73.9951 171.926 73.3424 172.402 72.6379C173.105 71.6194 173.448 70.3962 173.379 69.1608C173.329 68.7168 173.205 68.2842 173.012 67.8809Z" fill="#FAFAFA"/>
<path d="M184.416 118.145C184.222 117.917 183.999 117.716 183.752 117.547C183.046 117.126 182.218 116.958 181.403 117.071C180.848 117.148 180.304 117.296 179.786 117.51C179.218 117.741 178.631 118.02 177.998 118.307C177.335 118.619 176.637 118.851 175.919 119C175.534 119.074 175.141 119.099 174.75 119.074C174.348 119.043 173.952 118.95 173.579 118.797C172.853 118.469 172.211 117.981 171.701 117.369C171.229 116.814 170.8 116.225 170.416 115.606C170.04 115.022 169.709 114.451 169.344 113.968C169.011 113.508 168.635 113.081 168.219 112.693C167.642 112.109 166.91 111.701 166.11 111.517C165.814 111.471 165.514 111.447 165.214 111.445C165.289 111.424 165.367 111.413 165.445 111.41C165.541 111.404 165.638 111.404 165.734 111.41C165.859 111.412 165.984 111.425 166.108 111.447C166.934 111.61 167.695 112.012 168.296 112.603C168.72 112.992 169.107 113.421 169.451 113.883C169.825 114.375 170.167 114.943 170.543 115.521C170.922 116.13 171.348 116.709 171.816 117.253C172.307 117.845 172.924 118.318 173.623 118.64C173.982 118.787 174.363 118.877 174.75 118.908C175.127 118.929 175.506 118.905 175.877 118.836C176.58 118.684 177.262 118.452 177.91 118.143C178.536 117.866 179.135 117.579 179.712 117.362C180.248 117.147 180.811 117.004 181.385 116.937C182.225 116.833 183.076 117.027 183.787 117.487C183.975 117.611 184.145 117.761 184.291 117.933C184.341 117.998 184.383 118.069 184.416 118.145Z" fill="#FAFAFA"/>
<path d="M182.085 96.9617C181.969 97.0634 181.843 97.1518 181.708 97.2251C181.555 97.3246 181.396 97.4148 181.232 97.4954C181.02 97.6089 180.802 97.7099 180.578 97.7981C180.311 97.9162 180.037 98.0166 179.756 98.0984C179.435 98.2024 179.112 98.2879 178.784 98.3595C178.029 98.5079 177.261 98.5807 176.492 98.5767C175.721 98.5579 174.955 98.4595 174.205 98.2832C173.879 98.2042 173.557 98.1078 173.242 97.9944C172.963 97.9021 172.691 97.7925 172.426 97.6664C172.179 97.5647 171.964 97.4353 171.784 97.3406C171.624 97.2552 171.469 97.1595 171.322 97.0541C171.187 96.9776 171.06 96.8862 170.945 96.7815C170.964 96.7468 171.509 97.1257 172.482 97.5324C172.745 97.6456 173.015 97.7449 173.29 97.8327C173.565 97.9205 173.905 98.0129 174.244 98.0984C174.984 98.2627 175.739 98.3547 176.496 98.3734C177.253 98.3778 178.007 98.3113 178.751 98.1747C179.088 98.0961 179.416 98.036 179.712 97.9436C179.99 97.8677 180.264 97.7767 180.532 97.671C181.509 97.2667 182.085 96.9271 182.085 96.9617Z" fill="#FAFAFA"/>
<path d="M179.867 79.1834C179.699 79.4496 179.472 79.6734 179.204 79.8372C178.573 80.2737 177.825 80.5097 177.057 80.5142C176.291 80.5114 175.544 80.2744 174.916 79.8349C174.648 79.6704 174.421 79.4468 174.253 79.1811C174.274 79.158 174.514 79.426 175.004 79.7171C175.622 80.1076 176.338 80.3148 177.069 80.3148C177.8 80.3148 178.516 80.1076 179.134 79.7171C179.605 79.426 179.846 79.158 179.867 79.1834Z" fill="#FAFAFA"/>
<g opacity="0.2">
<path d="M151.212 124.7C153.09 125.234 154.968 125.77 156.925 125.71C158.881 125.649 160.884 124.896 162.007 123.309C163.162 121.664 163.25 119.328 164.751 117.995C165.812 117.053 167.313 116.84 168.665 116.427C170.734 115.743 172.566 114.487 173.95 112.804C175.334 111.12 176.212 109.079 176.482 106.917C176.859 103.331 175.558 99.5239 176.896 96.1738C177.614 94.3856 179.033 92.8977 179.462 91.0194C180.155 87.9582 178.037 85.0402 176.048 82.612C175.535 81.9882 173.458 80.5488 173.458 80.5488C173.458 80.5488 172.765 82.8268 172.832 83.8041C172.994 86.4564 175.011 89.0371 174.449 91.6316C173.826 94.5473 170.317 96.4095 169.383 99.242C168.395 102.266 170.238 105.942 167.572 109.408C166.235 111.143 162.418 111.66 161.021 113.335C160.108 114.428 159.951 116.669 159.519 118.023C158.145 122.2 155.834 123.621 151.556 124.642" fill="black"/>
</g>
<path d="M172.816 51.0381C172.808 51.1109 172.791 51.1823 172.765 51.2506C172.737 51.3246 172.712 51.4077 172.684 51.5002L172.543 51.8329C172.213 52.5374 171.741 53.1665 171.157 53.6811C170.299 54.4524 169.238 54.9609 168.099 55.1459C167.427 55.252 166.742 55.2339 166.077 55.0928C165.371 54.9332 164.683 54.7009 164.024 54.3997C162.668 53.8036 161.432 53.1336 160.203 52.8217C159.627 52.6611 159.031 52.5894 158.433 52.6091C157.914 52.626 157.403 52.7469 156.932 52.9649C156.238 53.2674 155.668 53.797 155.315 54.4667C155.206 54.7226 155.121 54.9878 155.061 55.2591C155.061 54.9749 155.123 54.6942 155.243 54.4366C155.588 53.7249 156.174 53.1585 156.897 52.8379C157.383 52.6107 157.909 52.4827 158.445 52.4613C159.058 52.436 159.672 52.5029 160.265 52.66C161.524 52.9719 162.779 53.6442 164.116 54.2356C164.764 54.5272 165.44 54.7532 166.133 54.9103C166.776 55.0471 167.439 55.069 168.09 54.9749C169.201 54.8056 170.243 54.325 171.093 53.5887C171.665 53.0973 172.136 52.4984 172.479 51.8259C172.539 51.7058 172.592 51.5949 172.636 51.5025L172.733 51.2714C172.751 51.1904 172.778 51.112 172.816 51.0381Z" fill="#FAFAFA"/>
<path d="M172.682 62.5651C172.497 62.4464 172.305 62.3384 172.107 62.2416C171.874 62.1336 171.628 62.056 171.375 62.0106C171.039 61.9617 170.698 61.9555 170.361 61.9921C169.478 62.1 168.628 62.3904 167.864 62.8446C166.983 63.3344 166.078 63.9998 165.001 64.4896C163.979 64.961 162.839 65.1155 161.728 64.9332C160.835 64.785 159.968 64.5104 159.152 64.1177C158.599 63.8661 158.06 63.587 157.535 63.2813C157.348 63.175 157.205 63.0895 157.11 63.0295C157.058 63.0025 157.009 62.9683 156.967 62.9278C157.175 63.0092 157.377 63.1049 157.572 63.2143C157.949 63.4061 158.496 63.6902 159.205 63.9906C160.015 64.3521 160.87 64.6046 161.746 64.7415C162.823 64.9092 163.925 64.754 164.914 64.2956C165.965 63.815 166.873 63.1681 167.767 62.6783C168.555 62.2197 169.432 61.9353 170.34 61.8443C170.689 61.8157 171.04 61.8335 171.384 61.8974C171.65 61.9447 171.909 62.0295 172.151 62.1492C172.3 62.2245 172.44 62.316 172.569 62.4218C172.659 62.5212 172.706 62.5605 172.682 62.5651Z" fill="#FAFAFA"/>
<path d="M177.363 42.7188C177.389 42.8417 177.397 42.9677 177.388 43.093C177.382 43.4441 177.338 43.7935 177.256 44.135C176.997 45.2783 176.379 46.3084 175.491 47.074C174.603 47.8396 173.493 48.3003 172.324 48.3884C171.976 48.4185 171.625 48.4092 171.278 48.3607C171.149 48.3539 171.021 48.3258 170.901 48.2775C171.371 48.2964 171.842 48.2863 172.311 48.2475C173.435 48.1275 174.496 47.6697 175.355 46.9343C176.214 46.199 176.831 45.2206 177.122 44.1281C177.229 43.6633 177.31 43.1927 177.363 42.7188Z" fill="#FAFAFA"/>
<path d="M167.084 44.9209C167.069 44.9696 167.047 45.0161 167.02 45.0595C166.952 45.1899 166.875 45.315 166.789 45.4338C166.478 45.8763 166.098 46.2662 165.664 46.589C164.639 47.374 163.38 47.7914 162.09 47.7742C161.58 47.7656 161.075 47.6839 160.588 47.5316C159.676 47.1881 158.797 46.7645 157.959 46.2655C157.276 45.878 156.535 45.6026 155.765 45.45C155.245 45.3531 154.711 45.3712 154.199 45.5031C153.822 45.6048 153.658 45.7134 153.651 45.6972C153.644 45.681 153.688 45.6602 153.774 45.6117C153.9 45.5362 154.035 45.4757 154.176 45.4315C154.697 45.2631 155.252 45.2227 155.793 45.3137C156.584 45.4473 157.346 45.7153 158.047 46.1061C158.886 46.5957 159.762 47.016 160.669 47.363C161.585 47.6423 162.558 47.675 163.49 47.4577C164.252 47.2777 164.972 46.9495 165.608 46.4919C166.179 46.0485 166.677 45.5184 167.084 44.9209Z" fill="#FAFAFA"/>
<g opacity="0.2">
<path d="M163.046 54.5527C162.954 55.6043 163.016 56.6637 163.231 57.6971C163.343 58.2126 163.567 58.6973 163.886 59.1172C164.205 59.5371 164.613 59.882 165.079 60.1277C165.398 60.272 165.742 60.3521 166.092 60.3634C166.441 60.3747 166.79 60.3171 167.117 60.1937C167.444 60.0703 167.744 59.8837 167.999 59.6444C168.255 59.4051 168.46 59.1179 168.605 58.7992C168.697 58.5917 168.764 58.3737 168.803 58.15C167.669 58.3092 166.514 58.1356 165.477 57.6505C164.439 57.1653 163.565 56.3893 162.961 55.4168" fill="black"/>
</g>
<path d="M159.907 20.468C159.136 19.6571 157.768 19.597 156.805 20.1792C156.337 20.4922 155.944 20.9054 155.656 21.389C155.367 21.8725 155.19 22.4142 155.137 22.9748C155.051 23.6679 155.104 24.4211 154.762 25.0333C154.421 25.6455 153.635 26.036 153.125 26.5905C152.749 27.0163 152.514 27.547 152.45 28.111C152.386 28.675 152.496 29.245 152.767 29.7441C153.072 30.2778 153.582 30.8069 153.436 31.403C153.291 31.9991 152.512 32.2647 152.05 32.7337C151.374 33.4269 151.48 34.5451 151.674 35.49C151.764 35.9197 151.905 36.3934 152.284 36.5967C152.611 36.7198 152.968 36.7392 153.307 36.6521C155.476 36.3472 157.673 36.8069 159.859 36.9224C162.044 37.038 164.426 36.7469 166.02 35.2405" fill="#2F2E41"/>
<path d="M167.762 24.6609L167.972 42.2751C167.951 43.3197 167.522 44.3145 166.776 45.0459C166.03 45.7772 165.027 46.1868 163.982 46.1866C162.925 46.1854 161.911 45.7645 161.164 45.0163C160.417 44.2682 159.997 43.254 159.997 42.1966V36.5616C159.997 36.5616 157.193 36.0995 156.618 32.4284C156.329 30.6078 156.419 27.6205 156.571 25.1784C156.71 22.9813 158.149 20.2158 161.078 20.2273C161.062 20.2435 167.452 19.7768 167.762 24.6609Z" fill="#F9B499"/>
<path d="M160.222 36.5733C161.947 36.5987 163.645 36.1461 165.128 35.2656C165.128 35.2656 163.939 37.7793 160.277 37.4374L160.222 36.5733Z" fill="#F7A48B"/>
<path d="M165.368 31.3538C165.34 31.7777 165.34 32.2029 165.368 32.6268C165.38 33.2023 165.543 33.7645 165.842 34.2566C166.14 34.7487 166.563 35.1532 167.068 35.4293C167.839 35.8856 168.703 36.1599 169.596 36.231C170.569 36.2234 171.531 36.0305 172.432 35.6626C174.003 35.122 175.543 34.5059 177.053 33.8143C177.288 33.7374 177.49 33.5815 177.623 33.3731C177.709 33.1159 177.697 32.8361 177.589 32.5875C177.376 31.8944 177.166 31.2013 176.951 30.492C176.851 30.0877 176.695 29.699 176.489 29.3369C176.28 28.9717 175.937 28.7023 175.533 28.586C175.193 28.559 174.855 28.5135 174.521 28.4497C174.348 28.3778 174.192 28.2709 174.063 28.1357C173.934 28.0005 173.834 27.8399 173.77 27.6642C173.648 27.3159 173.555 26.9581 173.493 26.5945C173.319 25.8205 172.952 25.0049 172.231 24.6745C171.82 24.4874 171.347 24.4828 170.926 24.2979C170.353 24.0135 169.894 23.5403 169.628 22.9579C169.366 22.3794 169.073 21.8149 168.752 21.2667C168.494 20.8574 168.118 20.5354 167.674 20.3426C167.447 20.1308 167.195 19.9484 166.923 19.7997C165.71 19.1297 164.245 19.1712 162.862 19.2313C161.478 19.2914 158.449 18.0207 158.253 21.5786C158.453 21.3566 158.733 21.2231 159.032 21.2075C159.33 21.1919 159.622 21.2955 159.845 21.4955C159.922 21.5627 159.99 21.6405 160.046 21.7265C160.342 22.1758 160.449 22.7234 160.346 23.2514C160.244 23.8451 160.17 24.5059 160.494 25.0165C160.678 25.2642 160.925 25.4588 161.209 25.5805C161.493 25.7023 161.804 25.7468 162.111 25.7096C162.727 25.6283 163.324 25.4349 163.871 25.1389C163.871 25.1389 164.319 27.4655 165.862 28.0246L165.368 31.3538Z" fill="#2F2E41"/>
<path d="M167.092 20.6404C166.902 20.251 166.825 19.8159 166.87 19.3849C166.915 18.9539 167.081 18.5443 167.348 18.203C167.623 17.8659 167.98 17.6042 168.384 17.4425C168.788 17.2809 169.226 17.2246 169.658 17.2788C170.131 17.3176 170.57 17.5418 170.878 17.9026C171.045 18.1543 171.147 18.443 171.177 18.7434C171.206 19.0439 171.161 19.347 171.047 19.6262C170.893 20.0776 170.615 20.4763 170.244 20.7757C169.873 21.0751 169.425 21.263 168.951 21.3174C168.476 21.3508 168.004 21.2138 167.621 20.931C167.237 20.6482 166.967 20.238 166.858 19.774" fill="#2F2E41"/>
<path d="M168.97 21.8395C168.813 21.3509 168.566 20.8957 168.243 20.4972C167.875 20.1372 167.447 19.8461 166.977 19.6378C167.135 19.6308 167.293 19.6592 167.439 19.7209C167.8 19.8562 168.124 20.0774 168.381 20.3655C168.642 20.6503 168.831 20.9932 168.933 21.3659C168.992 21.5168 169.004 21.6814 168.97 21.8395Z" fill="#106FA4"/>
<path opacity="0.2" d="M168.771 21.0239C168.791 21.0684 168.804 21.1161 168.808 21.1649C168.828 21.3001 168.835 21.4371 168.828 21.5738C168.785 22.0787 168.597 22.5602 168.286 22.96C167.535 24.0251 165.537 24.6674 163.712 23.8842C163.262 23.675 162.897 23.3178 162.679 22.8722C162.515 22.4665 162.381 22.0496 162.277 21.6246C162.069 20.9321 161.594 20.3505 160.958 20.0074C160.534 19.7694 160.058 19.64 159.572 19.6308C159.228 19.6308 159.036 19.6793 159.031 19.6608C159.074 19.6393 159.12 19.6237 159.168 19.6146C159.299 19.5817 159.434 19.5616 159.569 19.5545C160.203 19.5322 160.827 19.717 161.346 20.0809C161.866 20.4449 162.252 20.9681 162.448 21.5715C162.552 21.9868 162.686 22.3937 162.85 22.7891C163.054 23.1873 163.387 23.5048 163.795 23.6901C164.206 23.8801 164.65 23.9899 165.102 24.0136C165.525 24.0483 165.951 24.0203 166.366 23.9304C167.074 23.7994 167.715 23.4251 168.177 22.8722C168.486 22.4972 168.685 22.0437 168.752 21.5623C168.789 21.218 168.752 21.0239 168.771 21.0239Z" fill="black"/>
<path d="M213.292 44.2207L216.889 48.749L214.537 36.6311C214.352 35.8692 213.963 35.172 213.412 34.6142C213.172 34.3627 212.906 34.138 212.617 33.9442C212.253 33.7135 211.859 33.5339 211.446 33.4105C211.072 33.3319 210.958 32.8283 211.282 32.6827C211.605 32.5372 212.68 32.7266 213.719 33.4752C214.759 34.2237 214.216 32.3061 214.031 31.5968C213.846 30.8875 213.377 28.6996 213.55 28.4778C213.802 28.1521 214.206 28.3692 214.375 29.0716C214.544 29.774 215.195 31.844 215.563 31.7516C215.93 31.6592 214.936 28.0874 214.936 28.0874C214.936 28.0874 214.602 27.3596 215.022 27.2233C215.773 26.9761 216.551 30.8298 216.616 31.1994C216.66 31.4536 217.066 31.3519 216.99 31.0816C216.914 30.8113 215.921 27.5514 216.69 27.2949C217.279 27.0962 217.355 30.4578 217.942 31.0262C218.529 31.5945 217.621 28.4848 218.191 28.3092C218.406 28.2491 218.568 28.2352 218.836 30.0905C218.975 31.0886 218.794 32.6527 219.21 34.5564L219.316 35.0531C220.033 37.3635 222.583 46.0967 222.22 52.0436C222.164 52.8583 221.886 53.6421 221.417 54.3106C220.948 54.9791 220.306 55.5069 219.559 55.8371C218.812 56.1673 217.989 56.2874 217.179 56.1844C216.369 56.0814 215.602 55.7593 214.962 55.2527C212.499 53.3049 210.263 51.087 208.295 48.6404L213.292 44.2207Z" fill="#F7A48B"/>
<path d="M202.325 22.4474L200.999 37.8298L193.3 37.2152C193.251 36.3142 193.3 32.8255 193.3 32.8255C193.3 32.8255 190.096 32.3265 190.066 29.1289C190.047 27.5717 190.269 24.358 190.504 21.4562C190.629 19.9113 191.354 18.4766 192.523 17.4593C193.692 16.442 195.213 15.9228 196.76 16.013C198.328 16.1001 199.798 16.8059 200.846 17.9754C201.894 19.145 202.435 20.6827 202.351 22.251C202.335 22.3249 202.332 22.385 202.325 22.4474Z" fill="#F9B499"/>
<path d="M193.307 32.7887C194.779 32.8125 196.226 32.4001 197.465 31.6035C197.465 31.6035 196.478 33.9139 193.281 33.6205L193.307 32.7887Z" fill="#F7A48B"/>
<path d="M198.849 18.9315C199.355 19.3359 199.686 19.9202 199.773 20.5627V20.625C199.897 21.5492 199.874 22.4733 200.004 23.3836C200.09 24.3113 200.487 25.1825 201.131 25.8557C201.408 26.1145 201.882 26.2901 202.129 25.9874C202.205 25.8614 202.244 25.7165 202.242 25.5692C202.415 23.3605 203.016 21.4106 203.011 19.1002C203.013 18.7907 202.94 18.4853 202.8 18.2093C202.66 17.9334 202.456 17.6947 202.205 17.513C201.72 17.1687 201.131 16.8083 200.588 17.0509C200.045 17.2935 199.357 18.3101 198.939 18.7375" fill="#2F2E41"/>
<path d="M201.259 23.8987C201.309 23.8756 203.458 23.2471 203.388 25.4374C203.319 27.6276 201.134 27.1055 201.134 27.0546C201.134 27.0038 201.259 23.8987 201.259 23.8987Z" fill="#F9B499"/>
<path d="M201.82 26.2342C201.851 26.2579 201.885 26.2781 201.921 26.2942C202.012 26.3312 202.113 26.3312 202.203 26.2942C202.347 26.2085 202.466 26.0861 202.547 25.9396C202.628 25.7931 202.669 25.6276 202.665 25.4602C202.677 25.2732 202.646 25.0859 202.575 24.9126C202.557 24.843 202.523 24.7787 202.474 24.7256C202.426 24.6724 202.365 24.6319 202.298 24.6077C202.254 24.5948 202.207 24.5975 202.165 24.6152C202.123 24.6328 202.088 24.6644 202.067 24.7047C202.037 24.7648 202.067 24.811 202.037 24.8133C202.007 24.8156 201.991 24.7763 202.014 24.6862C202.025 24.6316 202.058 24.5836 202.104 24.5522C202.164 24.5082 202.24 24.4899 202.314 24.5014C202.401 24.5242 202.481 24.5685 202.547 24.6302C202.613 24.692 202.662 24.7692 202.691 24.8549C202.774 25.0476 202.812 25.2572 202.801 25.4671C202.804 25.6618 202.749 25.8529 202.645 26.017C202.54 26.1812 202.39 26.3112 202.212 26.3913C202.153 26.4058 202.092 26.407 202.032 26.3946C201.972 26.3822 201.916 26.3566 201.868 26.3196C201.82 26.2757 201.81 26.2388 201.82 26.2342Z" fill="#F7A48B"/>
<path d="M200.711 17.413C201.251 16.5374 199.773 15.2805 198.689 14.9386C197.606 14.5966 196.176 15.1257 195.111 15.4792C194.429 15.7102 193.755 16.0175 193.032 15.9921C192.555 15.941 192.088 15.8204 191.646 15.634C191.202 15.4497 190.726 15.3562 190.246 15.3591C190.005 15.3637 189.77 15.4342 189.566 15.5629C189.363 15.6916 189.198 15.8736 189.091 16.0891C189.005 16.292 189.004 16.5204 189.086 16.7244C189.169 16.9284 189.329 17.0912 189.532 17.1773C189.569 17.1928 189.607 17.206 189.645 17.2166C189.493 17.1338 189.323 17.0891 189.15 17.0862C188.976 17.0833 188.805 17.1224 188.65 17.2001C188.495 17.2778 188.361 17.3918 188.26 17.5324C188.159 17.673 188.093 17.836 188.069 18.0076C188.044 18.1791 188.061 18.354 188.119 18.5175C188.176 18.6809 188.273 18.828 188.399 18.9461C188.526 19.0643 188.679 19.1501 188.847 19.1961C189.014 19.2421 189.189 19.247 189.359 19.2104C189.047 18.9794 188.569 19.3652 188.608 19.7511C188.65 19.9431 188.741 20.1209 188.873 20.2668C189.004 20.4127 189.172 20.5216 189.359 20.5828C190.307 20.9272 191.349 20.9108 192.286 20.5366C193.23 20.2178 194.106 19.721 195.058 19.3814C196.009 19.0418 197.562 18.4272 198.504 18.7576C199.197 19.0071 199.68 19.8412 200.071 19.6563C200.255 19.5567 200.414 19.4154 200.534 19.2438C200.654 19.0722 200.733 18.8748 200.764 18.6675C200.816 18.252 200.801 17.8307 200.72 17.4199" fill="#2F2E41"/>
<path opacity="0.2" d="M189.387 17.1499C189.494 17.2936 189.611 17.4302 189.736 17.5588C190.072 17.9156 190.49 18.1852 190.953 18.3443C191.631 18.5862 192.377 18.5547 193.032 18.2565C193.783 17.9238 194.418 17.2585 195.146 16.6393C195.827 16.0015 196.688 15.5879 197.611 15.4541C197.993 15.4051 198.382 15.4443 198.747 15.5689C199.111 15.6934 199.443 15.9 199.715 16.1726C199.889 16.3633 200.022 16.587 200.108 16.8303C200.193 17.0736 200.228 17.3315 200.212 17.5888C200.197 17.7373 200.16 17.8828 200.104 18.0209C200.062 18.1017 200.039 18.148 200.032 18.1433C200.074 17.9679 200.101 17.7894 200.115 17.6096C200.112 17.1233 199.924 16.6564 199.588 16.3043C199.329 16.0594 199.018 15.8755 198.678 15.766C198.338 15.6565 197.979 15.6241 197.625 15.6712C196.746 15.8118 195.931 16.2144 195.285 16.8264C194.562 17.4433 193.899 18.1272 193.109 18.476C192.521 18.7261 191.868 18.7807 191.247 18.6318C190.625 18.4829 190.068 18.1383 189.657 17.6489C189.568 17.5438 189.49 17.4291 189.426 17.307C189.399 17.1984 189.378 17.1545 189.387 17.1499Z" fill="black"/>
<path opacity="0.2" d="M201.803 23.7966C201.727 23.7355 201.666 23.6561 201.628 23.5656C201.517 23.3162 201.48 23.0407 201.519 22.7708C201.568 22.0777 202.192 21.306 202.27 20.3334C202.33 19.8833 202.249 19.4258 202.039 19.0234C201.85 18.7101 201.563 18.4669 201.224 18.3303C200.987 18.2308 200.728 18.1965 200.473 18.2309C200.295 18.2587 200.203 18.3002 200.193 18.2818C200.268 18.2151 200.359 18.1696 200.457 18.1501C200.722 18.0812 201.001 18.0941 201.258 18.187C201.644 18.3224 201.971 18.5879 202.182 18.9379C202.43 19.372 202.531 19.8742 202.471 20.3703C202.414 20.8542 202.27 21.3238 202.046 21.7565C201.868 22.0893 201.736 22.4444 201.653 22.8124C201.607 23.1481 201.659 23.4901 201.803 23.7966Z" fill="black"/>
<path d="M208.415 72.1132L221.127 141.357L211.959 142.965L196.982 81.2346L198.474 144.09H189.758L184.889 71.4756L208.415 72.1132Z" fill="#2F2E41"/>
<path d="M207.077 49.6198L207.567 60.9406L209.381 73.8486H184.833C184.833 73.8486 184.78 70.8012 185.007 66.5709C185.319 60.6148 185.55 52.8011 185.55 52.8011L184.626 54.4184C183.44 53.2185 182.323 51.9527 181.28 50.6271L181.629 50.3291L179.067 45.3525L183.748 40.0595C184.965 38.6708 186.451 37.5437 188.116 36.7464C188.975 36.3398 189.308 36.3167 191.242 36.0533C192.15 35.9309 192.843 35.8708 193.293 35.8223C195.88 36.6417 198.657 36.6417 201.244 35.8223C201.547 35.8293 201.85 35.8532 202.15 35.8939L204.095 36.356C206.356 36.8817 208.404 38.0803 209.97 39.7938L215.165 45.4496L209.575 51.6529L207.077 49.6198Z" fill="#106FA4"/>
<path opacity="0.2" d="M185.582 55.3219C185.674 54.758 185.725 54.1881 185.734 53.6168C185.806 52.561 185.903 51.1078 186.035 49.5021C186.166 47.8964 186.31 46.4455 186.411 45.3942C186.492 44.8279 186.534 44.2566 186.536 43.6846C186.378 44.2359 186.271 44.8004 186.215 45.3711C186.065 46.4154 185.889 47.8686 185.753 49.4813C185.617 51.0939 185.554 52.5494 185.536 53.6122C185.498 54.1823 185.513 54.7547 185.582 55.3219Z" fill="black"/>
<path opacity="0.2" d="M206.675 45.082C206.604 45.4697 206.583 45.865 206.613 46.258C206.613 46.9858 206.657 47.9862 206.74 49.0905C206.823 50.1949 206.932 51.193 207.033 51.9115C207.064 52.3044 207.141 52.6923 207.264 53.0667C207.295 52.6743 207.281 52.2799 207.223 51.8907C207.161 51.0613 207.089 50.1163 207.01 49.072C206.932 48.0277 206.862 47.0828 206.802 46.2511C206.802 45.858 206.759 45.4661 206.675 45.082Z" fill="black"/>
<path d="M203.652 51.8514C203.61 51.3024 203.528 50.7571 203.405 50.2203C203.246 49.5956 202.993 48.9989 202.654 48.4506C202.212 47.7222 201.636 47.0847 200.956 46.5723C200.133 45.946 199.174 45.5226 198.156 45.3362C196.99 45.1244 195.789 45.2256 194.675 45.6296C193.446 46.0816 192.378 46.8851 191.602 47.94C190.765 49.0735 190.313 50.4457 190.313 51.8549C190.313 53.2642 190.765 54.6363 191.602 55.7698C191.983 56.3129 192.451 56.7884 192.988 57.1768C193.497 57.5626 194.062 57.8673 194.663 58.0802C196.114 58.6067 197.703 58.6135 199.158 58.0995C200.614 57.5855 201.846 56.5825 202.645 55.2616C202.984 54.7125 203.237 54.1149 203.395 53.4895C203.518 52.9527 203.601 52.4075 203.643 51.8584C203.647 51.8944 203.647 51.9309 203.643 51.967V52.2904C203.645 52.4638 203.631 52.6371 203.601 52.8079C203.575 53.0416 203.532 53.2732 203.474 53.5011C203.319 54.1393 203.066 54.7496 202.723 55.3101C201.926 56.6737 200.675 57.7143 199.189 58.2504C197.703 58.7866 196.076 58.7844 194.592 58.2442C193.972 58.0271 193.39 57.7153 192.866 57.3201C192.593 57.119 192.334 56.899 192.092 56.6616C191.851 56.4157 191.627 56.1524 191.424 55.8738C190.56 54.7091 190.094 53.2972 190.094 51.8468C190.094 50.3965 190.56 48.9846 191.424 47.8199C191.631 47.543 191.854 47.2791 192.092 47.0297C192.335 46.7945 192.594 46.5761 192.866 46.3759C193.391 45.9825 193.973 45.671 194.592 45.4517C196.076 44.9169 197.701 44.9171 199.186 45.4524C200.67 45.9876 201.921 47.0243 202.723 48.3836C203.065 48.9437 203.318 49.5531 203.474 50.1903C203.532 50.4182 203.575 50.6497 203.601 50.8834C203.631 51.0542 203.645 51.2275 203.643 51.4009V51.7521C203.65 51.7847 203.653 51.8181 203.652 51.8514Z" fill="#2F2E41"/>
<path d="M201.706 51.8516C201.667 51.4631 201.605 51.0774 201.519 50.6964C201.245 49.6643 200.632 48.754 199.78 48.1111C199.153 47.6395 198.419 47.3321 197.643 47.2171C196.868 47.1021 196.076 47.1831 195.34 47.4527C194.915 47.6048 194.516 47.8206 194.157 48.0927C193.775 48.3683 193.441 48.7046 193.168 49.0884C192.74 49.6743 192.454 50.3518 192.332 51.0673C192.21 51.7828 192.257 52.5168 192.467 53.2114C192.678 53.9059 193.047 54.542 193.545 55.0695C194.044 55.5969 194.658 56.0012 195.34 56.2506C196.127 56.5366 196.976 56.6091 197.8 56.4608C198.519 56.3293 199.197 56.031 199.78 55.5898C200.634 54.9497 201.247 54.0394 201.519 53.0068C201.606 52.626 201.668 52.2402 201.706 51.8516C201.713 51.9539 201.713 52.0566 201.706 52.1589C201.708 52.2851 201.698 52.4112 201.676 52.5355C201.658 52.7034 201.63 52.8701 201.591 53.0345C201.432 53.6922 201.136 54.309 200.723 54.8445C200.309 55.3801 199.787 55.8224 199.191 56.1424C198.595 56.4625 197.938 56.6533 197.263 56.7021C196.589 56.751 195.911 56.657 195.275 56.4262C194.832 56.2707 194.416 56.0495 194.039 55.77C193.644 55.4819 193.297 55.1325 193.011 54.735C192.577 54.1588 192.276 53.493 192.132 52.786C191.987 52.0791 192.002 51.3487 192.175 50.6482C192.349 49.9477 192.676 49.2947 193.134 48.7368C193.591 48.1789 194.167 47.73 194.82 47.423C195.473 47.116 196.187 46.9585 196.908 46.962C197.63 46.9655 198.341 47.1299 198.991 47.4433C199.641 47.7567 200.213 48.2111 200.665 48.7735C201.117 49.3358 201.438 49.992 201.605 50.6941C201.645 50.8583 201.673 51.025 201.69 51.1932C201.713 51.3174 201.723 51.4435 201.72 51.5698C201.722 51.6639 201.718 51.7581 201.706 51.8516Z" fill="#FAFAFA"/>
<path d="M199.907 51.8518C199.879 51.6112 199.835 51.3727 199.775 51.1379C199.602 50.4998 199.22 49.9384 198.689 49.5438C198.302 49.2525 197.848 49.0635 197.368 48.994C196.888 48.9246 196.399 48.977 195.945 49.1464C195.409 49.3403 194.945 49.6914 194.612 50.1537C194.249 50.6457 194.053 51.2413 194.053 51.853C194.053 52.4646 194.249 53.0602 194.612 53.5522C194.945 54.0145 195.409 54.3656 195.945 54.5596C196.396 54.7248 196.882 54.7751 197.357 54.7057C197.833 54.6363 198.283 54.4495 198.669 54.1622C199.198 53.767 199.581 53.2058 199.754 52.568C199.875 52.1175 199.863 51.8518 199.886 51.8518C199.893 51.9155 199.893 51.9798 199.886 52.0436C199.886 52.2265 199.865 52.4088 199.821 52.5865C199.683 53.1464 199.389 53.6553 198.972 54.0536C198.555 54.4519 198.033 54.7229 197.467 54.835C196.902 54.9471 196.316 54.8954 195.779 54.6862C195.242 54.477 194.775 54.1189 194.434 53.6539C194.045 53.1297 193.835 52.4943 193.835 51.8414C193.835 51.1886 194.045 50.5531 194.434 50.0289C194.791 49.5378 195.289 49.1671 195.862 48.9662C196.261 48.8218 196.686 48.7632 197.109 48.7942C197.532 48.8252 197.944 48.9452 198.318 49.1462C198.691 49.3472 199.018 49.6248 199.277 49.9609C199.537 50.2969 199.722 50.6838 199.821 51.0963C199.865 51.2748 199.887 51.4579 199.886 51.6416C199.902 51.7104 199.909 51.7811 199.907 51.8518Z" fill="#2F2E41"/>
<path d="M137.155 39.2665C140.196 39.2665 142.66 34.9531 142.66 29.6323C142.66 24.3114 140.196 19.998 137.155 19.998C134.115 19.998 131.65 24.3114 131.65 29.6323C131.65 34.9531 134.115 39.2665 137.155 39.2665Z" fill="#F9B499"/>
<path d="M131.999 26.2507C131.999 26.2507 131.422 37.664 136.007 37.4329C136.007 37.4329 140.006 38.1514 141.819 34.2215C142.384 32.952 142.587 31.5513 142.406 30.1738C142.175 28.2284 141.447 25.1256 139.184 23.9034C139.184 23.9034 134.794 21.1633 133.092 23.2796C133.08 23.2917 133.065 23.2997 133.049 23.3021C133.032 23.3046 133.016 23.3014 133.001 23.2931C132.987 23.2848 132.976 23.2719 132.969 23.2565C132.963 23.241 132.962 23.2239 132.967 23.208C133.649 21.4614 135.896 17.2265 140.962 19.9989C140.962 19.9989 145.742 20.6758 145.352 29.513L144.959 36.0583L138.678 41.4738L133.489 42.25L130.962 37.6593C130.962 37.6593 133.027 40.1823 134.633 39.7225C134.633 39.7225 130.962 36.5111 131.191 31.694L131.396 26.7706C131.399 26.6958 131.418 26.6225 131.45 26.5551C131.482 26.4877 131.528 26.4276 131.585 26.3785C131.641 26.3294 131.707 26.2923 131.778 26.2696C131.85 26.2468 131.925 26.2388 131.999 26.2461V26.2507Z" fill="#2F2E41"/>
<path d="M143.185 134.75L143.577 142.951L148.897 144.474L150.341 141.045L149.741 132.763L148.974 130.565L143.185 134.75Z" fill="#F9B499"/>
<path d="M151.337 141.757V149.684H134.496C134.362 149.684 134.23 149.652 134.111 149.59C133.992 149.527 133.891 149.436 133.816 149.325C133.741 149.214 133.694 149.086 133.68 148.953C133.666 148.82 133.685 148.685 133.736 148.561C134.364 147.029 135.981 144.469 139.768 144.402L143.799 139.962L143.82 139.934C144.032 139.651 144.329 139.442 144.666 139.337C145.004 139.232 145.367 139.235 145.702 139.347C146.038 139.459 146.33 139.674 146.537 139.96C146.745 140.247 146.856 140.592 146.857 140.946V142.454C146.858 142.547 146.895 142.636 146.961 142.702C147.027 142.768 147.116 142.805 147.208 142.806H148.588C148.659 142.805 148.728 142.782 148.786 142.741C148.845 142.7 148.889 142.642 148.913 142.575C149.077 142.17 149.507 141.315 150.343 141.027C150.458 140.988 150.58 140.978 150.7 140.996C150.819 141.015 150.932 141.062 151.03 141.133C151.127 141.205 151.206 141.299 151.259 141.408C151.313 141.516 151.339 141.636 151.337 141.757Z" fill="#106FA4"/>
<path d="M151.337 148.457V149.684H134.496C134.362 149.685 134.23 149.652 134.111 149.59C133.992 149.527 133.891 149.437 133.816 149.325C133.741 149.214 133.694 149.087 133.68 148.953C133.666 148.82 133.685 148.685 133.736 148.561C134.364 147.029 135.981 144.469 139.768 144.402C139.768 144.402 144.027 145.008 144.027 148.448L151.337 148.457Z" fill="#E6E6E6"/>
<path d="M127.521 135.367V141.522L131.25 144.105L133.237 144.412L135.013 140.988V134.75L127.521 135.367Z" fill="#F9B499"/>
<path d="M135.739 141.757V149.684H118.905C118.771 149.685 118.639 149.652 118.521 149.589C118.403 149.527 118.302 149.436 118.227 149.325C118.151 149.214 118.105 149.086 118.091 148.953C118.076 148.82 118.095 148.686 118.145 148.561C118.776 147.03 120.393 144.47 124.177 144.403L128.21 139.962L128.229 139.935C128.442 139.653 128.739 139.446 129.077 139.342C129.415 139.238 129.777 139.243 130.112 139.356C130.447 139.469 130.738 139.684 130.944 139.971C131.151 140.258 131.262 140.602 131.262 140.956V142.464C131.262 142.557 131.3 142.646 131.365 142.712C131.431 142.778 131.52 142.815 131.613 142.816H132.985C133.056 142.814 133.126 142.792 133.184 142.75C133.242 142.709 133.286 142.651 133.311 142.585C133.472 142.18 133.904 141.325 134.738 141.037C134.853 140.997 134.975 140.985 135.094 141.003C135.214 141.02 135.328 141.066 135.426 141.137C135.524 141.208 135.604 141.301 135.658 141.409C135.713 141.517 135.74 141.637 135.739 141.757Z" fill="#106FA4"/>
<path d="M135.739 148.457V149.684H118.905C118.771 149.684 118.639 149.651 118.521 149.589C118.403 149.526 118.302 149.435 118.227 149.324C118.151 149.214 118.105 149.086 118.091 148.953C118.076 148.82 118.095 148.685 118.145 148.561C118.776 147.029 120.393 144.469 124.177 144.402C124.177 144.402 128.439 145.008 128.439 148.448L135.739 148.457Z" fill="#E6E6E6"/>
<path d="M113.278 149.569C113.278 149.569 106.32 149.834 104.483 149.569C102.647 149.303 104.483 139.976 104.483 139.976L105.733 139.671L110.45 138.527L114.049 146.246C114.073 146.29 114.093 146.335 114.112 146.38L114.502 147.219C116.038 150.098 113.278 149.569 113.278 149.569Z" fill="#2F2E41"/>
<path opacity="0.2" d="M114.049 146.246C112.827 143.864 109.315 144.767 109.315 144.767C106.352 145.204 105.732 140.664 105.732 140.664V139.666L110.45 138.522L114.049 146.246Z" fill="black"/>
<path d="M86.4638 107.626C86.9258 112.215 85.0777 116.572 85.0777 116.572L78.6672 135.388L73.8506 134.232L74.7746 120.469C74.3126 113.589 77.526 108.77 77.526 108.77C76.1399 107.846 75.1258 104.057 75.1258 104.057C79.3764 104.676 86.7017 105.136 86.7017 105.136L86.4638 107.626Z" fill="#F9B499"/>
<path d="M109.417 135.387L103.573 137.081L92.3643 101.205C96.2753 101.489 99.9876 100.822 102.263 100.263C102.284 101.921 102.566 103.565 103.099 105.135C105.282 109.756 105.731 114.966 105.731 114.966L109.417 135.387Z" fill="#F9B499"/>
<path d="M104.584 99.5978C104.584 99.5978 103.709 99.9074 102.274 100.263C99.9896 100.822 96.2865 101.49 92.3755 101.206C91.7125 101.157 91.0426 101.081 90.375 100.975L86.6949 86.2924V105.136C86.6949 105.136 79.3696 104.674 75.119 104.057C74.657 103.988 74.225 103.923 73.8507 103.851C73.4696 103.78 73.1415 103.706 72.8782 103.632C72.8782 103.632 70.6512 95.0117 69.2744 91.8003L71.2334 79.8603L78.501 79.3359L99.1487 77.8457L104.584 99.5978Z" fill="#2F2E41"/>
<path opacity="0.2" d="M83.0404 81.787C79.1571 83.0253 74.9342 81.8332 74.9342 81.8332C70.9723 81.2787 73.8507 97.2803 73.8507 97.2803C70.6743 94.9907 73.7837 103.662 73.8507 103.846L72.8782 103.627C72.8782 103.627 70.6512 95.0069 69.2744 91.7955L71.2334 79.8555L78.501 79.3311L83.0404 81.787Z" fill="black"/>
<path opacity="0.2" d="M86.6953 86.2924L86.9263 82.4248C86.9263 82.4248 87.6194 91.0656 90.4816 86.729C90.4816 86.729 89.7885 95.9312 92.3666 101.206L90.3661 100.975L86.6953 86.2924Z" fill="black"/>
<path d="M98.1623 50.9663L99.5484 73.9198C99.5484 73.9198 94.2351 75.3707 90.8208 76.6622C89.5579 77.1426 88.2454 77.4805 86.9075 77.6695C82.8918 78.2415 78.8011 77.9724 74.8949 76.8793L67.625 32.7768C67.625 32.7768 68.3735 32.2107 69.9859 31.6216C71.7509 30.9631 74.553 30.27 78.5495 30.2354C79.5128 30.2354 80.5454 30.2538 81.6474 30.3301L91.0888 32.786C92.8215 33.0451 94.5315 33.4382 96.2034 33.962C97.6264 34.4379 98.9431 35.0548 99.5392 35.8103L108.713 49.1157L98.1623 50.9663Z" fill="#106FA4"/>
<path opacity="0.2" d="M98.1623 50.9667L99.5484 73.9202C99.5484 73.9202 94.2351 75.3734 90.8185 76.6649C89.6172 77.1232 88.3704 77.4516 87.0992 77.6445C83.0248 78.2487 78.8689 77.9882 74.9018 76.8798L67.625 32.7772C67.625 32.7772 68.3735 32.2111 69.9859 31.622C74.4537 35.1869 77.2512 45.3456 77.8542 47.7206C77.9327 48.0233 77.9997 48.3283 78.0528 48.6448C79.5267 57.3687 77.7502 70.4801 77.7502 70.4801C76.8262 73.6915 78.9053 71.6352 78.9053 71.6352C80.9705 67.5066 81.8876 72.5594 81.8876 72.5594C82.3496 76.688 85.8518 76.2028 85.8518 76.2028C97.3861 73.6499 94.5008 59.9425 94.5008 59.9425C94.0388 56.7311 85.6924 52.7133 85.6924 52.7133L88.9704 46.3829C93.0732 43.8277 84.8677 38.0656 84.8677 38.0656C78.9053 37.5227 78.7736 34.4268 78.7736 34.4268C81.3956 35.977 84.8677 35.5658 84.8677 35.5658C82.5119 34.1185 80.3855 32.3274 78.5587 30.252C79.5221 30.252 80.5547 30.2704 81.6566 30.3467L91.098 32.8026C92.8272 33.0568 94.5341 33.4446 96.2034 33.9624C95.288 35.1272 94.7591 36.5488 94.6902 38.0286C95.1153 39.5512 96.0971 38.2782 96.0971 38.2782C96.7901 34.0848 98.1623 39.2624 98.1623 39.2624C99.0864 42.7025 100.523 44.0033 100.523 44.0033C102.193 46.6787 108.713 49.1253 108.713 49.1253L98.1623 50.9667Z" fill="black"/>
<path d="M87.9312 149.388C87.9332 149.411 87.9303 149.434 87.9226 149.456C87.9149 149.478 87.9027 149.497 87.8867 149.514C87.8707 149.531 87.8514 149.544 87.83 149.552C87.8086 149.561 87.7856 149.565 87.7626 149.564L76.7641 149.333L69.6328 149.182L69.6559 144.197C69.3625 139.472 72.0145 140.433 72.0145 140.433C72.0145 140.433 73.6316 141.588 75.3157 141.274C76.1169 141.112 76.8246 140.647 77.2908 139.976C77.6165 141.112 79.5339 143.09 80.6266 144.148C81.0853 144.588 81.6819 144.856 82.3153 144.906C87.2913 145.322 87.8665 148.584 87.9312 149.388Z" fill="#2F2E41"/>
<path opacity="0.2" d="M87.9309 149.388C87.9329 149.411 87.93 149.434 87.9223 149.456C87.9147 149.478 87.9024 149.497 87.8865 149.514C87.8705 149.531 87.8511 149.544 87.8297 149.552C87.8083 149.561 87.7853 149.565 87.7623 149.564L76.7639 149.333C77.2259 147.628 79.5845 145.71 79.5845 145.71C78.2354 145.373 76.2649 142.676 75.3154 141.274C76.1167 141.112 76.8244 140.647 77.2906 139.976C77.6163 141.112 79.5337 143.09 80.6264 144.148C81.0851 144.588 81.6816 144.856 82.3151 144.906C87.291 145.322 87.8662 148.584 87.9309 149.388Z" fill="black"/>
<path d="M61.8384 149.569H46.5039V138.816H53.388C53.5197 142.372 57.5208 144.858 57.5208 144.858C61.7853 146.637 61.8384 149.569 61.8384 149.569Z" fill="#106FA4"/>
<path d="M61.8384 149.568H46.5039V148.66H53.2679C53.2679 148.66 53.6121 145.569 57.5208 144.857C61.7853 146.636 61.8384 149.568 61.8384 149.568Z" fill="#E6E6E6"/>
<path d="M77.8316 149.569H62.4971V138.816H69.3789C69.5106 142.372 73.5094 144.86 73.5094 144.86C77.7784 146.637 77.8316 149.569 77.8316 149.569Z" fill="#106FA4"/>
<path d="M77.8316 149.569H62.4971V148.661H69.2588C69.2588 148.661 69.603 145.57 73.5094 144.86C77.7784 146.637 77.8316 149.569 77.8316 149.569Z" fill="#E6E6E6"/>
<path d="M46.8623 76.8684L45.7881 138.816H53.7626L56.0935 122.112C56.0935 122.112 58.2257 103.987 58.5815 101.143H59.2907L61.5476 138.816H69.7786L71.2478 78.5157L70.3076 68.4355L46.8623 76.8684Z" fill="#2F2E41"/>
<path opacity="0.2" d="M50.5355 79.1321C50.5355 79.1321 59.6535 79.1067 60.007 85.5041C60.007 85.5041 60.3627 91.9015 56.0983 88.3481C56.0983 88.3481 59.9954 95.1013 58.9351 101.143H59.2954L60.1918 116.105C60.1918 116.105 62.5319 75.2807 71.2202 79.8599L71.2526 78.5245L70.3124 68.4443L49.9834 75.7497L50.5355 79.1321Z" fill="black"/>
<path d="M58.8564 26.25L59.33 30.9285C59.33 30.9285 61.1065 37.6794 63.5945 38.0352C63.5945 38.0352 66.0825 38.0352 66.0825 32.7052V28.6828L58.8564 26.25Z" fill="#F9B499"/>
<path d="M66.0825 28.6828V32.7052C66.0825 32.7052 59.4501 32.5896 58.8564 26.25L66.0825 28.6828Z" fill="#F7A48B"/>
<path d="M49.0217 35.9026C48.8092 37.0367 48.681 38.1851 48.6382 39.3381C48.6323 39.5525 48.5658 39.7607 48.4464 39.9388L44.778 45.4444C44.7411 45.4998 44.6894 45.5436 44.6287 45.5709C44.5681 45.5982 44.501 45.6078 44.4351 45.5986C44.3692 45.5894 44.3073 45.5619 44.2564 45.5191C44.2055 45.4763 44.1677 45.42 44.1473 45.3566L40.4743 33.9619L36.1982 36.8129L40.4743 54.5842C40.4743 54.5842 41.5415 58.4934 44.383 57.7818C44.383 57.7818 45.8684 57.0286 47.6171 53.3182L51.5258 47.2766C51.5258 47.2766 52.3921 45.6755 51.2324 41.7779C50.6694 39.7583 49.9297 37.7923 49.0217 35.9026Z" fill="#CCCCCC"/>
<path d="M62.046 36.9863C62.046 36.9863 63.529 38.8092 64.8805 37.319C64.8805 37.319 64.6749 39.0379 64.7095 43.4253L66.0263 75.8698C64.1725 76.3862 62.1966 76.2383 60.4404 75.4516L60.75 74.9895L61.8242 56.3287C61.8242 56.3287 62.6628 39.6479 62.046 36.9863Z" fill="#CCCCCC"/>
<path d="M72.8027 35.3926C72.8027 35.3926 78.2777 50.4908 77.3167 57.8701L74.7455 73.9318L72.8027 35.3926Z" fill="#CCCCCC"/>
<path opacity="0.2" d="M70.5333 108.125C70.5333 108.125 69.6093 111.801 65.3379 111.445C65.3379 111.445 69.8773 116.177 70.2723 118.787L70.5333 108.125Z" fill="black"/>
<path d="M36.1987 36.8136C36.1987 36.8136 34.406 36.7512 34.5816 32.6966C34.5816 32.6966 32.849 30.3169 34.3506 29.4782C34.3506 29.4782 34.0642 27.2164 35.4849 27.5722C35.4849 27.5722 34.7757 25.0839 35.8406 25.0839C35.8406 25.0839 36.9079 24.7304 37.2613 27.928C37.2613 27.928 36.4967 24.4624 37.7673 24.5941C37.7673 24.5941 38.6497 23.9195 38.6659 29.4782C38.6659 29.4782 39.1718 27.0777 40.2298 27.0962C40.2466 27.0962 40.2632 27.0996 40.2787 27.1061C40.2941 27.1127 40.3081 27.1223 40.3197 27.1344C40.3314 27.1465 40.3405 27.1608 40.3464 27.1764C40.3524 27.1921 40.3552 27.2088 40.3546 27.2256C40.3199 27.9973 40.1236 32.484 40.4608 33.9696L36.1987 36.8136Z" fill="#F9B499"/>
<path d="M85.3714 26.25C85.3714 26.25 83.7127 29.6324 81.6475 30.3209C81.6475 30.3209 87.6861 37.5246 91.0889 32.7768V30.3463L85.3714 26.25Z" fill="#F9B499"/>
<path d="M85.3715 26.25C85.3715 26.25 84.7547 27.6247 84.0039 28.3986C84.0039 28.3986 87.2265 32.4787 91.089 32.7883V30.3463L85.3715 26.25Z" fill="#F7A48B"/>
<path d="M89.7861 52.9678C89.7861 52.9678 82.336 53.0325 82.567 50.967C82.567 50.967 81.874 49.8118 82.567 49.3613C82.567 49.3613 80.8021 48.5434 82.2621 47.4622L79.8503 45.3829C79.763 45.3072 79.6933 45.2133 79.6463 45.1078C79.5993 45.0022 79.5761 44.8877 79.5783 44.7721C79.5805 44.6566 79.6081 44.543 79.6591 44.4393C79.7101 44.3356 79.7833 44.2445 79.8734 44.1722C79.9941 44.0761 80.1403 44.0176 80.294 44.004C80.4476 43.9905 80.6018 44.0224 80.7374 44.096L85.785 46.8291C85.785 46.8291 86.7091 47.2912 86.016 46.3671L84.4313 44.8907C84.3951 44.859 84.3697 44.8167 84.3587 44.7698C84.3477 44.7229 84.3516 44.6737 84.37 44.6291C84.3883 44.5846 84.4201 44.5469 84.4609 44.5213C84.5017 44.4957 84.5495 44.4835 84.5976 44.4864C85.7712 44.5303 88.4786 44.9993 90.4884 48.183L89.7861 52.9678Z" fill="#F9B499"/>
<path d="M82.2549 47.4598C82.7677 47.3038 83.3153 47.3038 83.8281 47.4598C83.3156 47.618 82.7673 47.618 82.2549 47.4598Z" fill="#F7A48B"/>
<path d="M82.5605 49.361C83.029 49.2039 83.5359 49.2039 84.0044 49.361C83.5361 49.5193 83.0288 49.5193 82.5605 49.361Z" fill="#F7A48B"/>
<path d="M82.5674 50.9664C83.0335 50.8094 83.5382 50.8094 84.0043 50.9664C83.5384 51.1247 83.0333 51.1247 82.5674 50.9664Z" fill="#F7A48B"/>
<path d="M108.712 49.1318C108.712 49.1318 109.489 51.8511 109.445 53.7041L102.794 50.1623L108.712 49.1318Z" fill="#999999"/>
<path d="M99.539 73.9316L100.177 77.3256C100.19 77.3959 100.177 77.4689 100.138 77.5292C100.099 77.5895 100.038 77.6325 99.9687 77.649C99.0446 77.8801 95.7689 78.6794 92.6572 79.6521C92.6572 79.6521 82.3541 84.4484 71.2217 79.8831L71.254 78.5478L74.539 76.2235C74.539 76.2235 76.6019 78.5177 86.8704 77.7045C88.3003 77.5913 89.6771 77.1015 91.0078 76.5493C93.7751 75.4446 96.6284 74.5692 99.539 73.9316Z" fill="#CCCCCC"/>
<path d="M78.6672 135.388L77.2812 139.976C75.2159 142.728 72.0049 140.438 72.0049 140.438L73.8507 134.232L78.6672 135.388Z" fill="#E6E6E6"/>
<path d="M104.483 139.971C104.483 139.971 108.385 143.04 110.448 138.523L109.402 135.388L103.573 137.081L104.483 139.976" fill="#E6E6E6"/>
<path d="M133.484 42.2499L134.861 44.3154L138.673 41.4736L133.484 42.2499Z" fill="#106FA4"/>
<path d="M155.056 62.438L149.322 72.3009L149.907 79.5093C149.934 79.8577 149.829 80.2037 149.612 80.4778C149.396 80.752 149.083 80.9342 148.738 80.9879L147.846 81.1196C143.919 81.7018 136.779 82.6929 134.605 82.9933C134.406 83.0197 134.203 82.9968 134.015 82.9267C133.827 82.8566 133.659 82.7415 133.526 82.5913L133.168 82.18C133.062 82.0588 132.932 81.96 132.787 81.8895C132.642 81.8189 132.485 81.778 132.324 81.7692C132.163 81.7604 132.002 81.7838 131.85 81.8381C131.698 81.8924 131.559 81.9764 131.44 82.0853L130.703 82.7622C130.477 82.9693 130.182 83.0832 129.876 83.0811H122.211C122.125 83.0808 122.04 83.0632 121.96 83.0294C121.881 82.9955 121.81 82.9461 121.75 82.884C121.69 82.822 121.644 82.7485 121.613 82.668C121.582 82.5876 121.568 82.5018 121.571 82.4157C121.708 79.9885 122.166 77.5902 122.934 75.2836C124.54 69.778 124.54 55.7841 124.54 55.7841C117.2 62.6667 115.135 58.307 115.135 58.307C113.749 57.0017 112.887 54.4672 112.363 51.8264C111.506 47.5037 111.531 42.8946 111.531 42.8946L117.658 38.8145L118.61 48.1876C119.102 50.6759 119.494 50.2831 119.494 50.2831L126.517 42.7028L126.531 42.6866L126.931 42.2592L128.829 41.3351L135.088 45.0062L147.717 41.9011C148.872 42.2361 149.768 45.235 149.768 45.235L155.056 58.2747C155.056 58.2747 156.193 60.6012 155.056 62.438Z" fill="#106FA4"/>
<path d="M142.66 69.3184L141.743 71.8413L146.1 76.2009L147.641 73.9206L142.66 69.3184Z" fill="#2F2E41"/>
<path opacity="0.2" d="M144.298 45.6787C144.298 45.6787 140.602 46.3718 142.429 52.1154L145.871 58.3072C145.871 58.3072 147.1 60.7677 145.717 62.0038C145.382 62.2854 144.964 62.4479 144.527 62.4658L137.844 62.8979C137.844 62.8979 141.889 64.4065 145.37 63.6511C145.37 63.6511 145.109 64.6353 143.411 66.3449C142.647 67.1003 141.776 67.7393 140.826 68.2417C140.158 68.6045 139.41 69.2052 139.671 70.0092H146.846L152.746 59.9129L144.298 45.6787Z" fill="black"/>
<path d="M141.743 71.8525C141.743 71.8525 136.18 75.191 137.557 79.5322C137.713 80.0132 138.022 80.4298 138.437 80.7181C138.852 81.0065 139.351 81.1507 139.856 81.1287C141.722 81.0524 144.751 80.2461 145.936 76.0459L141.743 71.8525Z" fill="#F9B499"/>
<path d="M154.795 127.119C154.398 127.426 153.973 127.696 153.527 127.925C153.145 128.114 152.744 128.259 152.33 128.357C150.637 128.789 150.272 130.055 150.212 130.836C150.151 131.861 149.804 132.848 149.209 133.685C148.738 134.32 148.134 134.843 147.438 135.217C146.742 135.591 145.972 135.807 145.182 135.85C138.301 137.455 137.876 134.233 137.876 134.233C136.351 135.67 134.939 136.524 133.655 136.977C130.754 137.998 128.501 136.956 127.104 135.875C126.488 135.408 125.944 134.855 125.486 134.233C123.687 130.792 121.247 130.631 121.247 130.631C119.667 130.069 119.374 128.847 119.457 127.794C119.518 127.164 119.685 126.55 119.949 125.975C121.786 122.764 121.335 117.03 121.335 117.03L122.465 85.6085L122.555 83.0787H129.876C130.179 83.079 130.472 82.9652 130.696 82.7599L131.433 82.0829C131.552 81.974 131.691 81.89 131.843 81.8357C131.995 81.7814 132.156 81.758 132.317 81.7668C132.478 81.7756 132.635 81.8165 132.78 81.8871C132.925 81.9576 133.054 82.0564 133.161 82.1776L133.519 82.5889C133.652 82.7391 133.82 82.8542 134.008 82.9243C134.196 82.9944 134.399 83.0173 134.598 82.9909C136.771 82.6905 143.905 81.6994 147.839 81.1172L149.484 89.5916L152.986 107.612C153.154 108.923 153.389 110.224 153.691 111.51C154.256 113.938 154.984 116.325 155.869 118.656C158.385 123.143 156.534 125.774 154.795 127.119Z" fill="#2F2E41"/>
<path opacity="0.2" d="M126.253 112.085C125.78 116.454 124.867 123.796 123.622 127.812H119.464V127.795C119.525 127.166 119.692 126.551 119.956 125.977C121.792 122.766 121.342 117.031 121.342 117.031L122.472 85.6104L126.387 86.2919L126.586 105.521C126.603 107.714 126.492 109.905 126.253 112.085Z" fill="black"/>
<path opacity="0.2" d="M127.521 86.292C127.521 86.292 129.684 114.966 128.143 127.812L131.878 127.35C131.875 125.559 132.045 123.773 132.387 122.015C133.013 118.831 133.842 111.664 132.567 98.9112L131.181 86.9828L127.521 86.292Z" fill="black"/>
<path opacity="0.2" d="M134.632 86.9804L139.742 85.6104C139.742 85.6104 147.444 107.956 147.116 119.718C147.116 119.718 144.662 122.274 138.27 125.617C138.27 125.617 138.072 95.4687 134.632 86.9804Z" fill="black"/>
<path opacity="0.2" d="M153.686 111.523L152.746 113.439C151.822 107.998 143.18 85.6218 143.18 85.6218C147.144 82.4173 149.475 89.6048 149.475 89.6048L152.977 107.626C153.146 108.936 153.383 110.237 153.686 111.523Z" fill="black"/>
<path opacity="0.2" d="M127.84 130.141L127.103 135.877C126.488 135.41 125.943 134.857 125.486 134.235C123.687 130.794 121.247 130.633 121.247 130.633L123.62 129.648L127.84 130.141Z" fill="black"/>
<path opacity="0.2" d="M137.917 130.566L137.875 134.232C136.351 135.669 134.939 136.524 133.655 136.977C133.745 134.737 133.21 132.517 132.109 130.563L137.917 130.566Z" fill="black"/>
<path opacity="0.2" d="M154.795 127.119C154.398 127.426 153.973 127.696 153.526 127.925C153.145 128.113 152.744 128.258 152.33 128.357C150.636 128.789 150.271 130.055 150.211 130.836C150.151 131.861 149.804 132.848 149.209 133.685C148.673 134.416 147.957 134.995 147.13 135.367C147.074 134.904 145.975 125.663 149.777 122.077L153.208 116.114L154.795 127.119Z" fill="black"/>
<path d="M111.533 42.8943V40.7965L117.2 36.7441L117.66 38.8096L111.533 42.8943Z" fill="#2F2E41"/>
<path d="M112.155 40.3533V36.7353C111.076 36.147 110.14 35.3292 109.411 34.3394C109.221 34.0757 109 33.836 108.753 33.6255L106.006 31.299C105.854 31.171 105.756 30.9898 105.733 30.7923C105.71 30.5948 105.763 30.3959 105.881 30.2362C106.003 30.0727 106.183 29.9629 106.384 29.9302C106.585 29.8974 106.791 29.9442 106.958 30.0606L107.817 30.6567L106.144 28.7229C106.031 28.5941 105.971 28.4269 105.976 28.2554C105.981 28.0838 106.051 27.9206 106.172 27.7988C106.285 27.6862 106.433 27.616 106.592 27.6C106.751 27.584 106.91 27.6232 107.043 27.711L108.947 29.0094C109.011 29.0531 109.088 29.0734 109.165 29.0671C109.243 29.0608 109.315 29.0282 109.372 28.9747C109.407 28.9411 109.434 28.9003 109.452 28.8552C109.47 28.81 109.478 28.7616 109.476 28.7131C109.474 28.6645 109.461 28.617 109.439 28.5737C109.417 28.5304 109.386 28.4923 109.349 28.4618L108.161 27.5354C108.063 27.4578 107.983 27.3588 107.928 27.246C107.874 27.1331 107.845 27.0093 107.845 26.8839C107.845 26.7584 107.874 26.6346 107.928 26.5218C107.983 26.4089 108.063 26.31 108.161 26.2323C108.315 26.1118 108.506 26.0494 108.702 26.0562C108.897 26.0629 109.083 26.1384 109.228 26.2693L113.618 30.2247C113.618 30.2247 113.1 28.2909 113.983 27.3667C114.035 27.3106 114.101 27.2693 114.174 27.247C114.248 27.2247 114.326 27.2222 114.4 27.2398C114.475 27.2574 114.544 27.2945 114.599 27.3472C114.655 27.3999 114.696 27.4665 114.717 27.54C114.874 28.0945 115.195 28.9262 115.778 29.4368C116.076 29.6848 116.327 29.9855 116.517 30.324C116.891 31.0287 117.33 32.2947 117.194 34.2216V36.7353L112.155 40.3533Z" fill="#F9B499"/>
<path d="M107.816 30.665C108.593 31.1145 109.286 31.6971 109.861 32.3863C109.083 31.9381 108.391 31.3553 107.816 30.665Z" fill="#F7A48B"/>
<path opacity="0.2" d="M126.931 42.2546C126.829 42.4857 122.955 51.034 124.54 55.7841C117.201 62.6667 115.135 58.307 115.135 58.307C113.749 57.0017 112.888 54.4672 112.363 51.8265C112.46 52.0044 117.33 60.8716 120.936 56.0845C121.425 55.4212 121.779 54.6684 121.978 53.8688C122.546 51.6671 124.318 45.3343 126.515 42.6982L126.529 42.682C126.654 42.53 126.788 42.3858 126.931 42.25V42.2546Z" fill="black"/>
<path opacity="0.2" d="M134.402 46.6094C133.355 51.6437 132.581 56.7565 132.413 61.9017C132.383 62.9621 132.413 64.1404 132.45 65.2055C132.434 68.8305 132.399 73.71 132.353 77.3511L132.283 81.7685L132.242 77.3534C132.221 73.703 132.219 68.842 132.226 65.2124C132.205 64.5609 132.159 63.646 132.177 63.0014C132.235 57.475 133.134 51.9764 134.402 46.6094Z" fill="black"/>
<path d="M64.0382 30.0397C67.6195 30.0397 70.5227 25.7832 70.5227 20.5325C70.5227 15.2819 67.6195 11.0254 64.0382 11.0254C60.4569 11.0254 57.5537 15.2819 57.5537 20.5325C57.5537 25.7832 60.4569 30.0397 64.0382 30.0397Z" fill="#F9B499"/>
<path d="M53.2884 19.1991C53.2884 19.1991 53.196 24.975 56.0837 24.573C56.0837 24.573 58.2621 24.8849 59.3294 18.8433C59.3294 18.8433 67.5025 18.8433 69.279 12.4459C69.1629 12.2421 69.0292 12.0488 68.8793 11.8683C67.7024 10.3583 66.1385 9.19504 64.3538 8.50213C62.2747 7.69581 60.7501 7.47171 58.47 9.95766C58.47 9.95766 55.0649 12.8017 54.7091 18.4875C54.7091 18.4829 55.0649 22.0432 53.2884 19.1991Z" fill="#2F2E41"/>
<path d="M69.2797 12.4462C69.2797 12.4462 72.0333 12.1019 72.1211 20.8975C72.13 21.3539 72.041 21.8068 71.8601 22.2259C71.6036 22.7989 71.1162 23.4366 70.213 23.4458C70.213 23.4458 71.6799 18.6102 68.7021 13.9294C68.9305 13.4497 69.1235 12.954 69.2797 12.4462Z" fill="#2F2E41"/>
<path d="M57.9523 25.5084C58.7954 25.2466 59.1922 24.1106 58.8384 22.9713C58.4847 21.8319 57.5144 21.1205 56.6712 21.3823C55.8281 21.6442 55.4313 22.7801 55.785 23.9195C56.1388 25.0589 57.1091 25.7702 57.9523 25.5084Z" fill="#F9B499"/>
<path d="M59.4732 31.4326C59.4732 31.4326 51.866 33.0499 49.0246 35.9032C49.0246 35.9032 52.9333 44.0773 51.5103 47.2771L47.6016 53.3187C47.6016 53.3187 48.8906 65.8802 46.2548 73.8325C46.0985 74.2914 46.0531 74.7808 46.1222 75.2606C46.1912 75.7404 46.3728 76.1971 46.6521 76.5933C47.6478 77.9796 49.6991 79.7031 53.6425 79.2641C53.6425 79.2641 58.2627 78.9083 60.7507 74.9992C60.7507 74.9992 62.9869 41.9794 62.0467 36.9867C62.0467 36.9867 60.6837 35.4896 59.4732 31.4326Z" fill="#106FA4"/>
<path d="M58.8559 31.5757C58.8559 31.5757 56.5204 29.1452 52.3322 30.3535C52.0191 30.4436 51.7368 30.6179 51.516 30.8574C51.2952 31.097 51.1444 31.3926 51.0801 31.712C50.8907 32.6708 50.8491 33.9554 51.9302 33.9692C51.9302 33.9692 51.9672 35.2723 52.6025 35.501C52.6818 35.5257 52.766 35.5309 52.8478 35.516C52.9296 35.5011 53.0066 35.4667 53.0722 35.4156C53.1378 35.3646 53.19 35.2984 53.2245 35.2227C53.259 35.1471 53.2746 35.0642 53.2701 34.9812C53.2539 34.3574 53.2701 33.1513 53.5219 32.2942C53.5354 32.244 53.5675 32.2009 53.6118 32.1737C53.656 32.1465 53.709 32.1372 53.7599 32.1479C53.8108 32.1585 53.8556 32.1882 53.8852 32.2309C53.9149 32.2736 53.927 32.326 53.9192 32.3774C53.7806 33.6042 53.6882 35.5657 54.5222 35.3924C54.5222 35.3924 55.2406 36.0462 55.4878 33.0381C55.501 32.8881 55.5595 32.7455 55.6557 32.6296C55.7518 32.5136 55.881 32.4297 56.0261 32.3889L58.8559 31.5757Z" fill="#F9B499"/>
<path d="M51.9309 33.962C51.85 32.7583 52.3144 31.4368 53.2869 30.6836C52.6003 31.6639 52.1374 32.7831 51.9309 33.962Z" fill="#F7A48B"/>
<path d="M66.082 32.7052C66.082 32.7052 64.6289 35.3921 64.6289 41.4337L66.015 75.6595C66.0372 76.2447 66.2434 76.808 66.6042 77.2693C66.9651 77.7305 67.4621 78.0662 68.0248 78.2286C69.1151 78.5382 70.7022 78.6907 72.876 78.2448C73.4521 78.1252 73.9663 77.803 74.3253 77.3368C74.6843 76.8705 74.8643 76.291 74.8327 75.7034L72.7998 35.3829C72.7998 35.3829 71.088 32.5065 66.082 32.7052Z" fill="#106FA4"/>
<path d="M40.4742 33.9628C40.4742 33.9628 37.2147 34.9032 36.3392 33.845C36.2463 33.7264 36.1865 33.5853 36.1659 33.4361C36.0874 32.9925 35.9973 31.932 36.8104 31.4261C36.8104 31.4261 38.476 30.3471 38.6793 29.4715L38.6654 28.448C38.3656 28.9589 37.9893 29.421 37.5497 29.818C37.4707 29.8787 37.3794 29.9212 37.2822 29.9426C37.1849 29.9639 37.0842 29.9635 36.9871 29.9414C36.8901 29.9194 36.7991 29.8762 36.7206 29.8149C36.6421 29.7536 36.5782 29.6758 36.5332 29.587L35.4983 27.5654C35.4983 27.5654 36.9305 31.262 35.4983 31.4261C35.4983 31.4261 35.5976 32.6529 34.6043 32.6898C34.6043 32.6898 34.2231 36.3009 36.2213 36.8069L40.4742 33.9628Z" fill="#F7A48B"/>
<path d="M90.4789 28.7178C93.583 28.7178 96.0994 25.0716 96.0994 20.5737C96.0994 16.0759 93.583 12.4297 90.4789 12.4297C87.3748 12.4297 84.8584 16.0759 84.8584 20.5737C84.8584 25.0716 87.3748 28.7178 90.4789 28.7178Z" fill="#F9B499"/>
<path d="M103.573 15.1309L79.585 19.9989C80.971 12.2014 86.0071 9.90721 86.0071 9.90721C86.7879 9.52599 89.1072 9.03851 89.7517 8.88371C95.7257 7.44204 96.0976 14.7474 96.0976 14.7474C100.718 13.7632 102.517 13.9596 103.204 14.3477C103.786 14.6712 103.573 15.1309 103.573 15.1309Z" fill="#106FA4"/>
<path opacity="0.2" d="M93.1871 16.272C95.548 10.0202 89.752 8.87883 89.752 8.87883C95.7259 7.43716 96.0978 14.7425 96.0978 14.7425C100.718 13.7583 102.518 13.9547 103.204 14.3428L93.1871 16.272Z" fill="black"/>
<path d="M82.3777 23.9034L85.0321 22.5772C85.0321 22.5772 85.1961 19.2549 85.3716 18.8252L80.6475 19.784C80.6475 19.784 80.7306 22.9815 82.3362 23.8988" fill="#2F2E41"/>
<path d="M85.3714 23.9678C85.3714 23.9678 87.3835 26.9458 90.479 27.1445L93.3459 26.8811C93.3459 26.8811 96.7741 25.6705 97.012 27.5997C97.0397 27.8636 97.0049 28.1303 96.9104 28.3783C96.5177 29.478 94.8498 32.6132 89.2501 29.478C88.3487 29.0696 87.4731 28.6067 86.6281 28.0918C86.0986 27.7682 85.6792 27.2922 85.4249 26.7262C85.1705 26.1601 85.0931 25.5305 85.2028 24.9196L85.3714 23.9678Z" fill="#2F2E41"/>
<path d="M84.2824 25.4505C85.0826 25.2586 85.5277 24.254 85.2765 23.2068C85.0253 22.1595 84.173 21.4662 83.3727 21.6582C82.5725 21.8502 82.1275 22.8548 82.3787 23.902C82.6298 24.9492 83.4822 25.6425 84.2824 25.4505Z" fill="#F9B499"/>
<path d="M90.4797 48.1826L89.6758 53.7275C89.6758 53.7275 107.632 63.4726 109.434 55.6174C109.434 55.6174 111.467 50.0563 100.228 50.0563C100.228 50.0494 94.7234 49.5896 90.4797 48.1826Z" fill="#CCCCCC"/>
<path d="M133.484 42.2494L134.87 44.3149L138.681 41.4731L144.963 36.0576C144.963 36.0576 145.194 37.6749 146.58 38.3495C146.58 38.3495 149.678 40.3826 146.945 42.8455C146.214 43.4905 145.334 43.9445 144.385 44.167L134.422 46.6091L126.283 41.8613C125.885 41.6278 125.588 41.2536 125.452 40.8123C125.315 40.371 125.349 39.8946 125.546 39.477C125.921 38.7685 126.445 38.1497 127.082 37.6633C127.082 37.6633 128.688 35.815 130.982 37.6633L133.484 42.2494Z" fill="#106FA4"/>
<path opacity="0.3" d="M133.484 42.2494L134.87 44.3149L138.681 41.4731L144.963 36.0576C144.963 36.0576 145.194 37.6749 146.58 38.3495C146.58 38.3495 149.678 40.3826 146.945 42.8455C146.214 43.4905 145.334 43.9445 144.385 44.167L134.422 46.6091L126.283 41.8613C125.885 41.6278 125.588 41.2536 125.452 40.8123C125.315 40.371 125.349 39.8946 125.546 39.477C125.921 38.7685 126.445 38.1497 127.082 37.6633C127.082 37.6633 128.688 35.815 130.982 37.6633L133.484 42.2494Z" fill="white"/>
<path d="M147.641 73.9313L149.311 72.3141L155.056 62.4372C155.287 61.9752 155.301 61.9567 155.301 61.9567C155.994 60.1084 155.056 58.274 155.056 58.274L150.138 46.1122C146.594 43.0925 144.31 45.6778 144.31 45.6778C141.36 47.9582 143.36 51.8835 143.36 51.8835L147.056 58.6713C148.237 60.18 147.484 61.5177 147.484 61.5177L142.66 69.3106L147.641 73.9313Z" fill="#106FA4"/>
</svg>
