<svg width="60" height="59" viewBox="0 0 60 59" fill="none" xmlns="http://www.w3.org/2000/svg">
<rect x="0.5" width="59" height="59" rx="10" fill="#FDB415"/>
<path d="M20.9326 42C20.2878 42 19.7212 41.7558 19.2327 41.2673C18.7442 40.7788 18.5 40.2122 18.5 39.5674V22.2755C18.5 21.6112 18.7442 21.0348 19.2327 20.5463C19.7212 20.0578 20.2878 19.8136 20.9326 19.8136H26.4426C26.5207 19.0907 26.8529 18.441 27.439 17.8646C28.0252 17.2882 28.7384 17 29.5785 17C30.4187 17 31.1319 17.2882 31.7181 17.8646C32.3042 18.441 32.6364 19.0907 32.7145 19.8136H38.2245C38.8888 19.8136 39.4652 20.0578 39.9537 20.5463C40.4422 21.0348 40.6864 21.6112 40.6864 22.2755V39.5674C40.6864 40.2122 40.4422 40.7788 39.9537 41.2673C39.4652 41.7558 38.8888 42 38.2245 42H20.9326ZM29.5785 20.9566C29.8521 20.9566 30.0866 20.8638 30.2819 20.6782C30.4773 20.4926 30.575 20.263 30.575 19.9894C30.575 19.7159 30.4773 19.4814 30.2819 19.286C30.0866 19.0907 29.8521 18.993 29.5785 18.993C29.305 18.993 29.0754 19.0907 28.8898 19.286C28.7042 19.4814 28.6114 19.7159 28.6114 19.9894C28.6114 20.263 28.7042 20.4926 28.8898 20.6782C29.0754 20.8638 29.305 20.9566 29.5785 20.9566ZM29.6372 33.6178C30.8095 33.6178 31.806 33.2075 32.6266 32.3869C33.4472 31.5662 33.8576 30.5698 33.8576 29.3974C33.8576 28.2251 33.4521 27.2335 32.6413 26.4226C31.8304 25.6118 30.829 25.2063 29.6372 25.2063C28.4844 25.2063 27.4928 25.6069 26.6624 26.408C25.832 27.2091 25.4168 28.2055 25.4168 29.3974C25.4168 30.5698 25.8271 31.5662 26.6477 32.3869C27.4683 33.2075 28.4648 33.6178 29.6372 33.6178ZM20.9326 39.5674H38.2245V38.1606C37.0522 37.086 35.7479 36.236 34.3118 35.6108C32.8757 34.9855 31.298 34.6729 29.5785 34.6729C27.8591 34.6729 26.2814 34.9904 24.8453 35.6254C23.4091 36.2605 22.1049 37.1153 20.9326 38.1899V39.5674Z" fill="#FFFBFE"/>
</svg>
