<svg width="59" height="59" viewBox="0 0 59 59" fill="none" xmlns="http://www.w3.org/2000/svg">
<rect width="59" height="59" rx="10" fill="#B6B778"/>
<path d="M19.3158 39.5168C18.6834 39.5168 18.1393 39.2842 17.6836 38.8192C17.2279 38.3542 17 37.8054 17 37.173C17 36.522 17.2325 35.9686 17.6975 35.5128C18.1626 35.0571 18.702 34.8293 19.3158 34.8293C19.4275 34.8293 19.5391 34.8339 19.6507 34.8432C19.7623 34.8525 19.9111 34.8758 20.0971 34.913L25.0078 30.0022C24.9706 29.8162 24.9474 29.6767 24.9381 29.5837C24.9288 29.4907 24.9241 29.3698 24.9241 29.221C24.9241 28.57 25.1566 28.0212 25.6217 27.5748C26.0867 27.1284 26.6354 26.9052 27.2679 26.9052C27.9189 26.9052 28.4723 27.133 28.928 27.5887C29.3837 28.0445 29.6116 28.5979 29.6116 29.2489C29.6116 29.3419 29.5744 29.5837 29.5 29.9743L32.1228 32.5692C32.2902 32.5506 32.4297 32.532 32.5413 32.5134C32.6529 32.4948 32.7552 32.4855 32.8482 32.4855C32.9412 32.4855 33.0482 32.4948 33.1691 32.5134C33.29 32.532 33.4435 32.5599 33.6295 32.5971L37.4241 28.7746C37.3869 28.6072 37.3637 28.4677 37.3544 28.356C37.3451 28.2444 37.3404 28.1235 37.3404 27.9933C37.3404 27.3423 37.5729 26.7935 38.0379 26.3471C38.503 25.9007 39.061 25.6775 39.7121 25.6775C40.3445 25.6775 40.8839 25.9007 41.3304 26.3471C41.7768 26.7935 42 27.3516 42 28.0212C42 28.6537 41.7768 29.2024 41.3304 29.6674C40.8839 30.1325 40.3445 30.365 39.7121 30.365C39.5818 30.365 39.4609 30.3603 39.3493 30.351C39.2377 30.3417 39.0889 30.3185 38.9029 30.2813L35.1083 34.0759C35.1455 34.2619 35.1687 34.4107 35.178 34.5223C35.1873 34.6339 35.192 34.7456 35.192 34.8572C35.192 35.4896 34.9687 36.0337 34.5223 36.4894C34.0759 36.9451 33.5272 37.173 32.8761 37.173C32.2251 37.173 31.667 36.9451 31.202 36.4894C30.737 36.0337 30.5045 35.4896 30.5045 34.8572C30.5045 34.7083 30.5138 34.5874 30.5324 34.4944L30.6161 34.0759L28.0212 31.481C27.8352 31.5182 27.691 31.5461 27.5887 31.5647C27.4864 31.5833 27.3795 31.5927 27.2679 31.5927C27.1562 31.5927 26.9051 31.5554 26.5145 31.481L21.5759 36.4476C21.6131 36.615 21.6363 36.7498 21.6456 36.8521C21.6549 36.9544 21.6596 37.0707 21.6596 37.2009C21.6596 37.8147 21.4317 38.3542 20.976 38.8192C20.5203 39.2842 19.9669 39.5168 19.3158 39.5168ZM20.5714 27.3516L19.8739 25.8728L18.3951 25.1752L19.8739 24.4777L20.5714 22.971L21.269 24.4777L22.7757 25.1752L21.269 25.8728L20.5714 27.3516ZM32.8482 26.1518L31.8158 23.8639L29.5279 22.8315L31.8158 21.7712L32.8482 19.4833L33.9085 21.7712L36.1964 22.8315L33.9085 23.8639L32.8482 26.1518Z" fill="#FFFBFE"/>
</svg>
