<svg width="59" height="59" viewBox="0 0 59 59" fill="none" xmlns="http://www.w3.org/2000/svg">
<rect x="0.5" width="58" height="59" rx="10" fill="#F46963"/>
<path d="M21.1822 41.6414C20.4403 41.6414 19.8078 41.3751 19.2847 40.8424C18.7616 40.3098 18.5 39.6725 18.5 38.9306V22.3236C18.5 21.5817 18.7616 20.9492 19.2847 20.4261C19.8078 19.903 20.4403 19.6414 21.1822 19.6414H26.3184C26.5277 18.9566 26.9176 18.4049 27.4883 17.9864C28.059 17.5679 28.7248 17.3586 29.4857 17.3586C30.2466 17.3586 30.9125 17.5679 31.4831 17.9864C32.0538 18.4049 32.4438 18.9566 32.653 19.6414H37.7892C38.5311 19.6414 39.1684 19.903 39.701 20.4261C40.2337 20.9492 40.5 21.5817 40.5 22.3236V38.9306C40.5 39.6725 40.2337 40.3098 39.701 40.8424C39.1684 41.3751 38.5311 41.6414 37.7892 41.6414H21.1822ZM24.0357 36.0772H31.5117V34.3651H24.0357V36.0772ZM24.0357 31.4832H34.9358V29.7711H24.0357V31.4832ZM24.0357 26.8891H34.9358V25.1771H24.0357V26.8891ZM29.4857 21.7529C29.8091 21.7529 30.085 21.6388 30.3132 21.4105C30.5415 21.1822 30.6556 20.9064 30.6556 20.583C30.6556 20.2787 30.5415 20.0076 30.3132 19.7698C30.085 19.532 29.8091 19.4131 29.4857 19.4131C29.1623 19.4131 28.8865 19.5273 28.6582 19.7555C28.43 19.9838 28.3158 20.2596 28.3158 20.583C28.3158 20.9064 28.43 21.1822 28.6582 21.4105C28.8865 21.6388 29.1623 21.7529 29.4857 21.7529Z" fill="#FFFBFE"/>
</svg>
