<svg width="50" height="50" viewBox="0 0 50 50" fill="none" xmlns="http://www.w3.org/2000/svg">
<path d="M21.3125 36.375L39 18.6875L36.125 15.875L21.3125 30.6875L13.8125 23.1875L11 26L21.3125 36.375ZM25 50C21.5833 50 18.3542 49.3438 15.3125 48.0312C12.2708 46.7188 9.61458 44.9271 7.34375 42.6562C5.07292 40.3854 3.28125 37.7292 1.96875 34.6875C0.65625 31.6458 0 28.4167 0 25C0 21.5417 0.65625 18.2917 1.96875 15.25C3.28125 12.2083 5.07292 9.5625 7.34375 7.3125C9.61458 5.0625 12.2708 3.28125 15.3125 1.96875C18.3542 0.65625 21.5833 0 25 0C28.4583 0 31.7083 0.65625 34.75 1.96875C37.7917 3.28125 40.4375 5.0625 42.6875 7.3125C44.9375 9.5625 46.7188 12.2083 48.0312 15.25C49.3438 18.2917 50 21.5417 50 25C50 28.4167 49.3438 31.6458 48.0312 34.6875C46.7188 37.7292 44.9375 40.3854 42.6875 42.6562C40.4375 44.9271 37.7917 46.7188 34.75 48.0312C31.7083 49.3438 28.4583 50 25 50Z" fill="#15C8A8"/>
</svg>
