<svg width="20" height="20" viewBox="0 0 20 20" fill="none" xmlns="http://www.w3.org/2000/svg">
<path d="M13.4454 6.08001L7.55369 11.9727C7.4542 12.0688 7.37485 12.1838 7.32025 12.3108C7.26566 12.4379 7.23693 12.5746 7.23572 12.7129C7.23452 12.8512 7.26088 12.9884 7.31325 13.1164C7.36563 13.2444 7.44298 13.3607 7.54078 13.4585C7.63859 13.5564 7.75489 13.6337 7.88291 13.6861C8.01092 13.7384 8.14809 13.7648 8.2864 13.7636C8.42472 13.7624 8.5614 13.7337 8.68849 13.6791C8.81558 13.6245 8.93052 13.5451 9.02661 13.4456L14.9193 7.55397C15.5054 6.96787 15.8347 6.17294 15.8347 5.34407C15.8347 4.5152 15.5054 3.72028 14.9193 3.13418C14.3332 2.54808 13.5383 2.21881 12.7094 2.21881C11.8806 2.21881 11.0856 2.54808 10.4995 3.13418L4.60682 9.02689C4.11315 9.50827 3.71997 10.0829 3.45011 10.7174C3.18024 11.3519 3.03905 12.0337 3.03473 12.7232C3.03041 13.4127 3.16305 14.0962 3.42494 14.7341C3.68683 15.3719 4.07278 15.9514 4.56038 16.439C5.04798 16.9265 5.62753 17.3123 6.26542 17.5742C6.9033 17.836 7.58683 17.9685 8.27633 17.9641C8.96584 17.9597 9.64761 17.8184 10.2821 17.5484C10.9166 17.2785 11.4911 16.8852 11.9724 16.3915L17.8652 10.4998L19.3381 11.9727L13.4454 17.8654C12.7682 18.5426 11.9644 19.0797 11.0797 19.4461C10.1949 19.8126 9.24671 20.0012 8.28911 20.0012C7.33151 20.0012 6.38328 19.8126 5.49857 19.4461C4.61386 19.0797 3.80999 18.5426 3.13286 17.8654C2.45573 17.1883 1.9186 16.3844 1.55214 15.4997C1.18568 14.615 0.99707 13.6668 0.99707 12.7092C0.99707 11.7516 1.18568 10.8033 1.55214 9.91863C1.9186 9.03392 2.45573 8.23005 3.13286 7.55293L9.02661 1.66126C10.0089 0.71252 11.3245 0.187549 12.6902 0.199416C14.0558 0.211282 15.3621 0.759037 16.3277 1.7247C17.2934 2.69037 17.8412 3.99669 17.853 5.3623C17.8649 6.7279 17.3399 8.04354 16.3912 9.02584L10.4995 14.9206C10.2093 15.2108 9.86466 15.441 9.48542 15.5981C9.10618 15.7551 8.69973 15.8359 8.28926 15.8359C7.8788 15.8358 7.47236 15.7549 7.09316 15.5978C6.71396 15.4407 6.36942 15.2104 6.07921 14.9201C5.78901 14.6298 5.55881 14.2852 5.40178 13.906C5.24475 13.5268 5.16395 13.1203 5.164 12.7098C5.16405 12.2994 5.24494 11.893 5.40206 11.5137C5.55919 11.1345 5.78946 10.79 6.07973 10.4998L11.9724 4.60709L13.4454 6.08001Z" fill="#383838"/>
</svg>
