<?xml version="1.0" standalone="no"?>
<!DOCTYPE svg PUBLIC "-//W3C//DTD SVG 20010904//EN"
 "http://www.w3.org/TR/2001/REC-SVG-20010904/DTD/svg10.dtd">
<svg version="1.0" xmlns="http://www.w3.org/2000/svg"
 width="60.000000pt" height="60.000000pt" viewBox="0 0 60.000000 60.000000"
 preserveAspectRatio="xMidYMid meet">

<g transform="translate(0.000000,60.000000) scale(0.100000,-0.100000)"
fill="#000000" stroke="none">
<path d="M17 583 c-4 -3 -7 -41 -7 -84 0 -92 6 -99 97 -99 46 0 66 -5 95 -25
45 -31 48 -31 48 -2 0 12 7 31 15 41 19 24 21 146 3 164 -13 13 -239 18 -251
5z m213 -43 c0 -6 -35 -10 -85 -10 -50 0 -85 4 -85 10 0 6 35 10 85 10 50 0
85 -4 85 -10z m-5 -40 c4 -6 -25 -10 -79 -10 -51 0 -86 4 -86 10 0 6 33 10 79
10 44 0 83 -4 86 -10z m-30 -39 c39 -7 38 -7 -31 -14 -71 -8 -109 -2 -98 14 6
11 73 11 129 0z"/>
<path d="M300 510 c0 -5 13 -10 29 -10 41 0 81 -17 114 -48 32 -30 52 -89 36
-108 -5 -7 -9 -41 -7 -76 3 -60 4 -63 31 -66 l27 -3 0 74 c0 54 -4 76 -14 80
-7 3 -16 20 -19 37 -10 47 -42 86 -90 109 -45 22 -107 28 -107 11z"/>
<path d="M157 355 c-22 -16 -25 -150 -3 -158 7 -3 16 -20 20 -38 9 -44 48 -93
88 -110 18 -7 39 -19 46 -26 7 -7 19 -13 26 -13 20 0 39 28 32 46 -5 13 -15
15 -50 10 -40 -6 -48 -4 -79 24 -41 35 -66 95 -48 113 15 15 13 128 -2 148
-10 14 -16 15 -30 4z"/>
<path d="M96 314 c-22 -21 -20 -57 4 -79 20 -18 20 -17 20 38 0 32 -2 57 -4
57 -3 0 -12 -7 -20 -16z"/>
<path d="M550 275 c0 -57 0 -58 20 -40 11 10 20 28 20 40 0 12 -9 30 -20 40
-20 18 -20 17 -20 -40z"/>
</g>
</svg>
