<svg width="60" height="59" viewBox="0 0 60 59" fill="none" xmlns="http://www.w3.org/2000/svg">
<rect x="0.92334" y="0.500488" width="59" height="58.1981" rx="10" fill="#15C8A8"/>
<path d="M17.9233 34.5434V19.1653C17.9233 18.7514 18.0879 18.3705 18.4171 18.0225C18.7463 17.6745 19.1273 17.5005 19.5599 17.5005H34.6558C35.0885 17.5005 35.4694 17.6698 35.7986 18.0084C36.1278 18.347 36.2924 18.7326 36.2924 19.1653V29.6619C36.2924 30.0945 36.1278 30.4802 35.7986 30.8188C35.4694 31.1574 35.0885 31.3267 34.6558 31.3267H22.7766L19.1084 35.0231C18.8827 35.2488 18.6288 35.3005 18.3466 35.1783C18.0644 35.056 17.9233 34.8444 17.9233 34.5434ZM24.9211 37.9576C24.4884 37.9576 24.1075 37.7836 23.7783 37.4356C23.4491 37.0876 23.2845 36.7067 23.2845 36.2928V33.0197H37.9854V22.8617H41.315C41.7288 22.8617 42.1004 23.0357 42.4295 23.3837C42.7587 23.7317 42.9233 24.122 42.9233 24.5547V40.9768C42.9233 41.2778 42.7823 41.4941 42.5001 41.6258C42.2179 41.7574 41.964 41.7104 41.7382 41.4847L38.2394 37.9576H24.9211Z" fill="white"/>
</svg>
