<svg width="25" height="26" viewBox="0 0 25 26" fill="none" xmlns="http://www.w3.org/2000/svg">
<path d="M2.77778 0.5H22.2222C22.9589 0.5 23.6655 0.792658 24.1864 1.31359C24.7073 1.83453 25 2.54107 25 3.27778V22.7222C25 24.2639 23.7639 25.5 22.2222 25.5H2.77778C2.04107 25.5 1.33453 25.2073 0.813592 24.6864C0.292658 24.1655 0 23.4589 0 22.7222V3.27778C0 1.75 1.25 0.5 2.77778 0.5ZM6.94444 19.9444H18.0556V17.1667H6.94444V19.9444ZM18.0556 10.2222H14.5833V6.05556H10.4167V10.2222H6.94444L12.5 15.7778L18.0556 10.2222Z" fill="#3AAA35"/>
</svg>
