<svg width="30" height="30" viewBox="0 0 30 30" fill="none" xmlns="http://www.w3.org/2000/svg">
<path d="M15.0176 30C12.9495 30 11.0047 29.6063 9.18331 28.819C7.36193 28.0317 5.76968 26.9624 4.40658 25.611C3.04348 24.2597 1.96827 22.6733 1.18096 20.8519C0.393655 19.0306 0 17.0858 0 15.0176C0 12.9495 0.393655 11.0047 1.18096 9.18331C1.96827 7.36193 3.04348 5.77556 4.40658 4.42421C5.76968 3.07286 7.36193 1.99765 9.18331 1.19859C11.0047 0.39953 12.9495 0 15.0176 0C17.0858 0 19.0247 0.39953 20.8343 1.19859C22.6439 1.99765 24.2303 3.07286 25.5934 4.42421C26.9565 5.77556 28.0317 7.36193 28.819 9.18331C29.6063 11.0047 30 12.9495 30 15.0176C30 17.0858 29.6063 19.0306 28.819 20.8519C28.0317 22.6733 26.9565 24.2597 25.5934 25.611C24.2303 26.9624 22.6439 28.0317 20.8343 28.819C19.0247 29.6063 17.0858 30 15.0176 30ZM13.537 26.651V23.7955C12.7145 23.7955 12.0329 23.4959 11.4924 22.8966C10.9518 22.2973 10.6816 21.5981 10.6816 20.7991V19.2832L3.66628 12.2679C3.54877 12.738 3.46651 13.1904 3.41951 13.6251C3.3725 14.0599 3.349 14.5006 3.349 14.9471C3.349 17.9318 4.31257 20.5464 6.23972 22.7908C8.16686 25.0353 10.5993 26.322 13.537 26.651ZM23.6193 22.9495C24.1128 22.4089 24.5476 21.8273 24.9236 21.2045C25.2996 20.5817 25.6169 19.9295 25.8754 19.2479C26.134 18.5664 26.3279 17.8672 26.4571 17.1504C26.5864 16.4336 26.651 15.6992 26.651 14.9471C26.651 12.5499 25.993 10.3643 24.6769 8.39013C23.3608 6.41598 21.5981 4.97062 19.389 4.05405V4.65335C19.389 5.45241 19.1069 6.14571 18.5429 6.73326C17.9788 7.3208 17.2973 7.61457 16.4982 7.61457H13.537V10.611C13.537 11.0106 13.3784 11.3337 13.0611 11.5805C12.7438 11.8273 12.3854 11.9506 11.9859 11.9506H9.16569V14.9471H18.0141C18.4136 14.9471 18.7427 15.0999 19.0012 15.4054C19.2597 15.7109 19.389 16.0635 19.389 16.463V20.7991H20.8343C21.4924 20.7991 22.074 20.9988 22.5793 21.3984C23.0846 21.7979 23.4313 22.3149 23.6193 22.9495Z" fill="#FFFBFE"/>
</svg>
