<svg width="61" height="59" viewBox="0 0 61 59" fill="none" xmlns="http://www.w3.org/2000/svg">
<rect x="0.223145" width="59.8537" height="59" rx="10" fill="#F46963"/>
<path d="M29.2005 41.6032L26.451 38.8537H21.8875C21.1506 38.8537 20.5223 38.5845 20.0026 38.0459C19.483 37.5074 19.2231 36.8791 19.2231 36.161V19.6644C19.2231 18.9274 19.483 18.2991 20.0026 17.7795C20.5223 17.2598 21.1506 17 21.8875 17H38.3841C39.1022 17 39.7305 17.2598 40.2691 17.7795C40.8076 18.2991 41.0769 18.9274 41.0769 19.6644V36.161C41.0769 36.8791 40.8076 37.5074 40.2691 38.0459C39.7305 38.5845 39.1022 38.8537 38.3841 38.8537H33.849L31.0712 41.6032C30.8067 41.8677 30.4949 42 30.1358 42C29.7768 42 29.465 41.8677 29.2005 41.6032ZM29.9941 34.3753C30.3343 34.3753 30.6366 34.2477 30.9011 33.9926C31.1657 33.7375 31.298 33.4305 31.298 33.0714C31.298 32.7124 31.1657 32.4053 30.9011 32.1502C30.6366 31.8951 30.3343 31.7676 29.9941 31.7676C29.6351 31.7676 29.328 31.8951 29.0729 32.1502C28.8178 32.4053 28.6903 32.7124 28.6903 33.0714C28.6903 33.4305 28.8178 33.7375 29.0729 33.9926C29.328 34.2477 29.6351 34.3753 29.9941 34.3753ZM30.9295 29.2449C31.0051 28.9803 31.1563 28.6875 31.383 28.3662C31.6098 28.045 31.8838 27.7237 32.205 27.4025C32.6963 26.9112 33.0601 26.4104 33.2963 25.9002C33.5325 25.39 33.6506 24.842 33.6506 24.2562C33.6506 23.2169 33.3482 22.4186 32.7436 21.8611C32.1389 21.3037 31.3074 21.0249 30.2492 21.0249C29.4178 21.0249 28.6336 21.1997 27.8966 21.5493C27.1597 21.8989 26.6872 22.3288 26.4794 22.839C26.3282 23.1224 26.2621 23.4059 26.281 23.6893C26.2999 23.9728 26.4416 24.1712 26.7061 24.2846C26.9707 24.4169 27.2447 24.4358 27.5281 24.3413C27.8116 24.2468 28.0667 24.0862 28.2934 23.8594C28.558 23.6327 28.832 23.4531 29.1154 23.3209C29.3989 23.1886 29.7201 23.1224 30.0792 23.1224C30.5138 23.1224 30.8681 23.2406 31.1421 23.4768C31.4161 23.713 31.5531 24.0389 31.5531 24.4546C31.5531 24.7759 31.4728 25.083 31.3121 25.3758C31.1515 25.6687 30.8823 25.9947 30.5043 26.3537C29.9752 26.8639 29.5737 27.3458 29.2997 27.7993C29.0257 28.2528 28.8887 28.678 28.8887 29.0748C28.8887 29.3772 28.9784 29.6417 29.158 29.8685C29.3375 30.0952 29.5595 30.2086 29.8241 30.2086C30.0886 30.2086 30.3201 30.1189 30.5185 29.9393C30.7169 29.7598 30.8539 29.5283 30.9295 29.2449Z" fill="white"/>
</svg>
