<svg width="15" height="20" viewBox="0 0 15 20" fill="none" xmlns="http://www.w3.org/2000/svg">
<path d="M6.54762 0C7.69048 0 8.6746 0.404762 9.5 1.21429C10.3254 2.02381 10.7381 3 10.7381 4.14286C10.7381 4.80952 10.5873 5.44841 10.2857 6.05952C9.98413 6.67064 9.53175 7.16667 8.92857 7.54762V4.47619C8.92857 3.80952 8.69841 3.25397 8.2381 2.80952C7.77778 2.36508 7.21429 2.14286 6.54762 2.14286C5.88095 2.14286 5.31746 2.36508 4.85714 2.80952C4.39683 3.25397 4.16667 3.80952 4.16667 4.47619V7.54762C3.61111 7.16667 3.17064 6.6746 2.84524 6.07143C2.51984 5.46825 2.35714 4.8254 2.35714 4.14286C2.35714 3 2.76984 2.02381 3.59524 1.21429C4.42063 0.404762 5.40476 0 6.54762 0ZM6.07143 20C5.80159 20 5.54762 19.9484 5.30952 19.8452C5.07143 19.7421 4.86508 19.6032 4.69048 19.4286L0 14.7619L0.571428 14.1667C0.761905 13.9762 0.956349 13.8532 1.15476 13.7976C1.35317 13.7421 1.5873 13.7381 1.85714 13.7857L4.88095 14.3095V4.52381C4.88095 4.04762 5.03968 3.65079 5.35714 3.33333C5.6746 3.01587 6.07143 2.85714 6.54762 2.85714C7.02381 2.85714 7.42063 3.01587 7.7381 3.33333C8.05556 3.65079 8.21429 4.04762 8.21429 4.52381V9.7619H8.45238C8.65873 9.7619 8.88095 9.78571 9.11905 9.83333C9.35714 9.88095 9.5873 9.96032 9.80952 10.0714L13.3095 11.619C13.754 11.8095 14.0754 12.119 14.2738 12.5476C14.4722 12.9762 14.5317 13.4365 14.4524 13.9286L13.6429 18.4286C13.5635 18.8889 13.3413 19.2659 12.9762 19.5595C12.6111 19.8532 12.1984 20 11.7381 20H6.07143Z" fill="#1C1B1F"/>
</svg>
