<svg width="24" height="24" viewBox="0 0 24 24" fill="none" xmlns="http://www.w3.org/2000/svg">
<path fill-rule="evenodd" clip-rule="evenodd" d="M4.38286 3.64782C3.24975 4.18456 2.42916 5.21992 2.26685 6.46317C1.98425 8.62771 1.73318 12.1184 2.58377 14.5C3.53093 17.1521 4.55057 18.5515 6.58377 20.5C7.60636 21.48 9.19342 22.4529 10.4004 23.1232C11.4509 23.7067 12.7166 23.7067 13.7671 23.1232C14.9741 22.4529 16.5612 21.48 17.5838 20.5C19.617 18.5515 20.6366 17.1521 21.5838 14.5C22.4344 12.1184 22.1833 8.62772 21.9007 6.46317C21.7384 5.21992 20.9178 4.18456 19.7847 3.64782L13.7961 0.811135C12.7123 0.297737 11.4553 0.297737 10.3714 0.811135L4.38286 3.64782ZM16.7433 10.669C17.1128 10.2585 17.0795 9.62619 16.669 9.25673C16.2585 8.88727 15.6262 8.92055 15.2567 9.33106L11.4618 13.5476L9.70711 11.7929C9.31658 11.4024 8.68342 11.4024 8.29289 11.7929C7.90237 12.1834 7.90237 12.8166 8.29289 13.2071L10.7929 15.7071C10.9869 15.9011 11.252 16.0069 11.5263 15.9997C11.8005 15.9925 12.0598 15.8729 12.2433 15.669L16.7433 10.669Z" fill="#232C40"/>
</svg>
