<svg width="20" height="16" viewBox="0 0 20 16" fill="none" xmlns="http://www.w3.org/2000/svg">
<path d="M11.8182 5.8639V4.77299C12.3182 4.56087 12.8295 4.40178 13.3523 4.29572C13.875 4.18966 14.4242 4.13663 15 4.13663C15.3939 4.13663 15.7803 4.16693 16.1591 4.22754C16.5379 4.28815 16.9091 4.3639 17.2727 4.45481V5.45481C16.9091 5.31845 16.5417 5.21618 16.1705 5.14799C15.7992 5.07981 15.4091 5.04572 15 5.04572C14.4242 5.04572 13.8712 5.11769 13.3409 5.26163C12.8106 5.40557 12.303 5.60633 11.8182 5.8639ZM11.8182 10.8639V9.75027C12.3182 9.53815 12.8295 9.38284 13.3523 9.28436C13.875 9.18587 14.4242 9.13663 15 9.13663C15.3939 9.13663 15.7803 9.16693 16.1591 9.22754C16.5379 9.28815 16.9091 9.3639 17.2727 9.45481V10.4548C16.9091 10.3184 16.5417 10.2162 16.1705 10.148C15.7992 10.0798 15.4091 10.0457 15 10.0457C14.4242 10.0457 13.8712 10.1139 13.3409 10.2503C12.8106 10.3866 12.303 10.5912 11.8182 10.8639ZM11.8182 8.3639V7.27299C12.3182 7.06087 12.8295 6.90178 13.3523 6.79572C13.875 6.68966 14.4242 6.63663 15 6.63663C15.3939 6.63663 15.7803 6.66693 16.1591 6.72754C16.5379 6.78815 16.9091 6.8639 17.2727 6.95481V7.95481C16.9091 7.81845 16.5417 7.71618 16.1705 7.64799C15.7992 7.57981 15.4091 7.54572 15 7.54572C14.4242 7.54572 13.8712 7.61769 13.3409 7.76163C12.8106 7.90557 12.303 8.10633 11.8182 8.3639ZM10.7273 13.2275C11.4848 12.8488 12.2273 12.5647 12.9545 12.3753C13.6818 12.1859 14.4545 12.0912 15.2727 12.0912C15.8485 12.0912 16.4432 12.1366 17.0568 12.2275C17.6705 12.3184 18.197 12.4397 18.6364 12.5912V2.84118C18.1212 2.5836 17.5758 2.39421 17 2.27299C16.4242 2.15178 15.8485 2.09118 15.2727 2.09118C14.4545 2.09118 13.6629 2.21618 12.8977 2.46618C12.1326 2.71618 11.4091 3.06845 10.7273 3.52299V13.2275ZM10.0455 15.273C9.27273 14.6972 8.43182 14.2541 7.52273 13.9434C6.61364 13.6328 5.68182 13.4775 4.72727 13.4775C4.16667 13.4775 3.62121 13.5457 3.09091 13.6821C2.56061 13.8184 2.0303 13.9851 1.5 14.1821C1.15152 14.3488 0.814394 14.326 0.488636 14.1139C0.162879 13.9018 0 13.5988 0 13.2048V2.68208C0 2.45481 0.0530303 2.24648 0.159091 2.05708C0.265151 1.86769 0.424242 1.71996 0.636364 1.6139C1.27273 1.31087 1.93561 1.08739 2.625 0.943448C3.31439 0.799509 4.01515 0.727539 4.72727 0.727539C5.68182 0.727539 6.60985 0.856327 7.51136 1.1139C8.41288 1.37148 9.25758 1.76542 10.0455 2.29572C10.8182 1.76542 11.6477 1.37148 12.5341 1.1139C13.4205 0.856327 14.3333 0.727539 15.2727 0.727539C15.9848 0.727539 16.6818 0.799509 17.3636 0.943448C18.0455 1.08739 18.7045 1.31087 19.3409 1.6139C19.553 1.71996 19.7159 1.86769 19.8295 2.05708C19.9432 2.24648 20 2.45481 20 2.68208V13.2048C20 13.6291 19.8295 13.951 19.4886 14.1707C19.1477 14.3904 18.8106 14.3942 18.4773 14.1821C17.9621 13.97 17.4394 13.7995 16.9091 13.6707C16.3788 13.5419 15.8333 13.4775 15.2727 13.4775C14.3182 13.4775 13.4015 13.6366 12.5227 13.9548C11.6439 14.273 10.8182 14.7124 10.0455 15.273Z" fill="#383838"/>
</svg>
