<svg width="20" height="20" viewBox="0 0 20 20" fill="none" xmlns="http://www.w3.org/2000/svg">
<path d="M10 20C7.22222 20 4.86111 19.0278 2.91667 17.0833C0.972222 15.1389 0 12.7778 0 10C0 7.22222 0.972222 4.86111 2.91667 2.91667C4.86111 0.972222 7.22222 0 10 0C10.1481 0 10.3056 0.00462968 10.4722 0.0138889C10.6389 0.0231482 10.8519 0.037037 11.1111 0.0555555C10.4444 0.648148 9.92593 1.37963 9.55556 2.25C9.18519 3.12037 9 4.03704 9 5C9 6.66667 9.58333 8.08333 10.75 9.25C11.9167 10.4167 13.3333 11 15 11C15.963 11 16.8796 10.8287 17.75 10.4861C18.6204 10.1435 19.3519 9.66667 19.9444 9.05556C19.963 9.27778 19.9769 9.45833 19.9861 9.59722C19.9954 9.73611 20 9.87037 20 10C20 12.7778 19.0278 15.1389 17.0833 17.0833C15.1389 19.0278 12.7778 20 10 20Z" fill="#1C1B1F"/>
</svg>
