<svg width="23" height="24" viewBox="0 0 23 24" fill="none" xmlns="http://www.w3.org/2000/svg">
<path fill-rule="evenodd" clip-rule="evenodd" d="M12.0833 2.52708C12.0833 2.23598 11.8012 2 11.4531 2H7.04167C4.25723 2 2 3.88787 2 6.21667V18.8667C2 21.1955 4.25723 23.0833 7.04167 23.0833H17.125C19.9094 23.0833 22.1667 21.1955 22.1667 18.8667V10.9604C22.1667 10.6693 21.8845 10.4333 21.5365 10.4333H18.3854C14.9049 10.4333 12.0833 8.0735 12.0833 5.1625V2.52708ZM21.1829 8.325C21.6019 8.325 21.9031 7.98654 21.7018 7.67912C21.5309 7.41809 21.3153 7.1763 21.0592 6.96208L16.2338 2.92627C15.9776 2.71205 15.6885 2.53173 15.3764 2.38878C15.0088 2.22041 14.6042 2.47231 14.6042 2.82283V5.1625C14.6042 6.9091 16.2971 8.325 18.3854 8.325H21.1829Z" fill="#232C40"/>
</svg>
