<svg width="19" height="20" viewBox="0 0 19 20" fill="none" xmlns="http://www.w3.org/2000/svg">
<path d="M13.2584 15.2559C13.6912 15.2559 14.0574 15.0978 14.3571 14.7815C14.6567 14.4653 14.8065 14.0907 14.8065 13.6579C14.8065 13.2251 14.6567 12.8589 14.3571 12.5593C14.0574 12.2597 13.6912 12.1099 13.2584 12.1099C12.8256 12.1099 12.4511 12.2597 12.1348 12.5593C11.8186 12.8589 11.6604 13.2251 11.6604 13.6579C11.6604 14.0907 11.8186 14.4653 12.1348 14.7815C12.4511 15.0978 12.8256 15.2559 13.2584 15.2559ZM13.2335 18.377C13.7828 18.377 14.2821 18.2605 14.7316 18.0275C15.181 17.7944 15.5639 17.4615 15.8801 17.0287C15.4474 16.7957 15.0146 16.6209 14.5818 16.5044C14.149 16.3878 13.6995 16.3296 13.2335 16.3296C12.7674 16.3296 12.3138 16.3878 11.8727 16.5044C11.4315 16.6209 11.0029 16.7957 10.5868 17.0287C10.903 17.4615 11.2817 17.7944 11.7228 18.0275C12.164 18.2605 12.6675 18.377 13.2335 18.377ZM13.3084 20C12.01 20 10.903 19.5381 9.98752 18.6142C9.07199 17.6904 8.61423 16.5959 8.61423 15.3308C8.61423 14.0325 9.07199 12.9213 9.98752 11.9975C10.903 11.0737 12.01 10.6117 13.3084 10.6117C14.5901 10.6117 15.6929 11.0737 16.6167 11.9975C17.5406 12.9213 18.0025 14.0325 18.0025 15.3308C18.0025 16.5959 17.5406 17.6904 16.6167 18.6142C15.6929 19.5381 14.5901 20 13.3084 20ZM7.99001 20C5.69288 19.4673 3.78693 18.1648 2.27216 16.0924C0.757387 14.02 0 11.6438 0 8.96379V2.99625L7.99001 0L15.98 2.99625V9.73783C15.5639 9.53808 15.1311 9.3841 14.6816 9.2759C14.2322 9.16771 13.7744 9.11361 13.3084 9.11361C11.5938 9.11361 10.1332 9.72118 8.92634 10.9363C7.71952 12.1515 7.11611 13.6163 7.11611 15.3308C7.11611 16.1298 7.2784 16.9122 7.603 17.6779C7.92759 18.4436 8.37287 19.1094 8.93883 19.6754C8.78901 19.7586 8.63088 19.8211 8.46442 19.8627C8.29796 19.9043 8.13983 19.9501 7.99001 20Z" fill="#383838"/>
</svg>
