<svg width="20" height="20" viewBox="0 0 20 20" fill="none" xmlns="http://www.w3.org/2000/svg">
<path d="M7.7 20L7.2 16.85C6.88333 16.7333 6.55 16.575 6.2 16.375C5.85 16.175 5.54167 15.9667 5.275 15.75L2.325 17.1L0 13L2.7 11.025C2.66667 10.875 2.64583 10.7042 2.6375 10.5125C2.62917 10.3208 2.625 10.15 2.625 10C2.625 9.85 2.62917 9.67917 2.6375 9.4875C2.64583 9.29583 2.66667 9.125 2.7 8.975L0 7L2.325 2.9L5.275 4.25C5.54167 4.03333 5.85 3.825 6.2 3.625C6.55 3.425 6.88333 3.275 7.2 3.175L7.7 0H12.3L12.8 3.15C13.1167 3.26667 13.4542 3.42083 13.8125 3.6125C14.1708 3.80417 14.475 4.01667 14.725 4.25L17.675 2.9L20 7L17.3 8.925C17.3333 9.09167 17.3542 9.27083 17.3625 9.4625C17.3708 9.65417 17.375 9.83333 17.375 10C17.375 10.1667 17.3708 10.3417 17.3625 10.525C17.3542 10.7083 17.3333 10.8833 17.3 11.05L20 13L17.675 17.1L14.725 15.75C14.4583 15.9667 14.1542 16.1792 13.8125 16.3875C13.4708 16.5958 13.1333 16.75 12.8 16.85L12.3 20H7.7ZM10 13.25C10.9 13.25 11.6667 12.9333 12.3 12.3C12.9333 11.6667 13.25 10.9 13.25 10C13.25 9.1 12.9333 8.33333 12.3 7.7C11.6667 7.06667 10.9 6.75 10 6.75C9.1 6.75 8.33333 7.06667 7.7 7.7C7.06667 8.33333 6.75 9.1 6.75 10C6.75 10.9 7.06667 11.6667 7.7 12.3C8.33333 12.9333 9.1 13.25 10 13.25Z" fill="#383838"/>
</svg>
