<svg width="17" height="18" viewBox="0 0 17 18" fill="none" xmlns="http://www.w3.org/2000/svg">
<path d="M16.6667 12.8093C16.6663 13.9489 16.2768 15.0543 15.5625 15.9423C14.8483 16.8304 13.8522 17.4479 12.7392 17.6926L12.2075 16.0976C12.6944 16.0174 13.1574 15.8302 13.5632 15.5495C13.969 15.2688 14.3074 14.9016 14.5542 14.4743H12.5C12.058 14.4743 11.634 14.2987 11.3215 13.9861C11.0089 13.6736 10.8333 13.2496 10.8333 12.8076V9.47428C10.8333 9.03226 11.0089 8.60833 11.3215 8.29577C11.634 7.98321 12.058 7.80762 12.5 7.80762H14.9483C14.745 6.1967 13.9608 4.71534 12.7429 3.64151C11.5249 2.56768 9.95704 1.97518 8.33333 1.97518C6.70963 1.97518 5.14172 2.56768 3.92381 3.64151C2.7059 4.71534 1.92169 6.1967 1.71833 7.80762H4.16667C4.60869 7.80762 5.03262 7.98321 5.34518 8.29577C5.65774 8.60833 5.83333 9.03226 5.83333 9.47428V12.8076C5.83333 13.2496 5.65774 13.6736 5.34518 13.9861C5.03262 14.2987 4.60869 14.4743 4.16667 14.4743H1.66667C1.22464 14.4743 0.800716 14.2987 0.488155 13.9861C0.175595 13.6736 0 13.2496 0 12.8076V8.64095C0 4.03845 3.73083 0.307617 8.33333 0.307617C12.9358 0.307617 16.6667 4.03845 16.6667 8.64095V12.8093Z" fill="#383838"/>
</svg>
