<svg width="20" height="21" viewBox="0 0 20 21" fill="none" xmlns="http://www.w3.org/2000/svg">
<path d="M2.43278 20.4871C1.74989 20.4871 1.17371 20.2566 0.704225 19.7957C0.234742 19.3347 0 18.7628 0 18.0799V3.17595C0 2.49306 0.234742 1.91688 0.704225 1.44739C1.17371 0.977911 1.74989 0.743169 2.43278 0.743169H12.0615V3.17595H2.43278V18.0799H17.3367V8.45124H19.7439V18.0799C19.7439 18.7628 19.5092 19.3347 19.0397 19.7957C18.5702 20.2566 18.0026 20.4871 17.3367 20.4871H2.43278ZM15.8259 7.094V4.73805H13.4443V2.89426H15.8003V0.512695H17.644V2.86865H20V4.71244H17.644V7.094H15.8259ZM3.7388 15.6984H16.0307L12.3431 10.7816L9.09091 15.0582L6.68374 11.8827L3.7388 15.6984ZM2.43278 3.17595V18.0799V3.17595Z" fill="#383838"/>
</svg>
