<svg width="60" height="59" viewBox="0 0 60 59" fill="none" xmlns="http://www.w3.org/2000/svg">
<rect x="0.723145" width="59" height="58.5006" rx="10" fill="#FDB415"/>
<path d="M20.4846 41.5006C19.7208 41.5006 19.0696 41.2264 18.531 40.678C17.9924 40.1297 17.7231 39.4736 17.7231 38.7098V25.1375C17.7231 24.3737 17.9924 23.7225 18.531 23.1839C19.0696 22.6453 19.7208 22.376 20.4846 22.376H24.8324V19.7908C24.8324 19.027 25.1017 18.3709 25.6403 17.8226C26.1789 17.2742 26.8301 17 27.5939 17H32.823C33.5868 17 34.238 17.2742 34.7766 17.8226C35.3152 18.3709 35.5845 19.027 35.5845 19.7908V22.376H39.9323C40.6961 22.376 41.3522 22.6453 41.9006 23.1839C42.449 23.7225 42.7231 24.3737 42.7231 25.1375V38.7098C42.7231 39.4736 42.449 40.1297 41.9006 40.678C41.3522 41.2264 40.6961 41.5006 39.9323 41.5006H20.4846ZM27.5939 22.376H32.823V19.7908H27.5939V22.376Z" fill="white"/>
</svg>
