<svg width="59" height="59" viewBox="0 0 59 59" fill="none" xmlns="http://www.w3.org/2000/svg">
<rect width="59" height="59" rx="10" fill="#5D9DD8"/>
<path d="M29.5 32C29.1458 32 28.849 31.8802 28.6094 31.6406C28.3698 31.401 28.25 31.1042 28.25 30.75C28.25 30.3958 28.3698 30.099 28.6094 29.8594C28.849 29.6198 29.1458 29.5 29.5 29.5C29.8542 29.5 30.151 29.6198 30.3906 29.8594C30.6302 30.099 30.75 30.3958 30.75 30.75C30.75 31.1042 30.6302 31.401 30.3906 31.6406C30.151 31.8802 29.8542 32 29.5 32ZM24.5 32C24.1458 32 23.849 31.8802 23.6094 31.6406C23.3698 31.401 23.25 31.1042 23.25 30.75C23.25 30.3958 23.3698 30.099 23.6094 29.8594C23.849 29.6198 24.1458 29.5 24.5 29.5C24.8542 29.5 25.151 29.6198 25.3906 29.8594C25.6302 30.099 25.75 30.3958 25.75 30.75C25.75 31.1042 25.6302 31.401 25.3906 31.6406C25.151 31.8802 24.8542 32 24.5 32ZM34.5 32C34.1458 32 33.849 31.8802 33.6094 31.6406C33.3698 31.401 33.25 31.1042 33.25 30.75C33.25 30.3958 33.3698 30.099 33.6094 29.8594C33.849 29.6198 34.1458 29.5 34.5 29.5C34.8542 29.5 35.151 29.6198 35.3906 29.8594C35.6302 30.099 35.75 30.3958 35.75 30.75C35.75 31.1042 35.6302 31.401 35.3906 31.6406C35.151 31.8802 34.8542 32 34.5 32ZM29.5 37C29.1458 37 28.849 36.8802 28.6094 36.6406C28.3698 36.401 28.25 36.1042 28.25 35.75C28.25 35.3958 28.3698 35.099 28.6094 34.8594C28.849 34.6198 29.1458 34.5 29.5 34.5C29.8542 34.5 30.151 34.6198 30.3906 34.8594C30.6302 35.099 30.75 35.3958 30.75 35.75C30.75 36.1042 30.6302 36.401 30.3906 36.6406C30.151 36.8802 29.8542 37 29.5 37ZM24.5 37C24.1458 37 23.849 36.8802 23.6094 36.6406C23.3698 36.401 23.25 36.1042 23.25 35.75C23.25 35.3958 23.3698 35.099 23.6094 34.8594C23.849 34.6198 24.1458 34.5 24.5 34.5C24.8542 34.5 25.151 34.6198 25.3906 34.8594C25.6302 35.099 25.75 35.3958 25.75 35.75C25.75 36.1042 25.6302 36.401 25.3906 36.6406C25.151 36.8802 24.8542 37 24.5 37ZM34.5 37C34.1458 37 33.849 36.8802 33.6094 36.6406C33.3698 36.401 33.25 36.1042 33.25 35.75C33.25 35.3958 33.3698 35.099 33.6094 34.8594C33.849 34.6198 34.1458 34.5 34.5 34.5C34.8542 34.5 35.151 34.6198 35.3906 34.8594C35.6302 35.099 35.75 35.3958 35.75 35.75C35.75 36.1042 35.6302 36.401 35.3906 36.6406C35.151 36.8802 34.8542 37 34.5 37ZM20.125 42C19.625 42 19.1875 41.8125 18.8125 41.4375C18.4375 41.0625 18.25 40.625 18.25 40.125V20.75C18.25 20.25 18.4375 19.8125 18.8125 19.4375C19.1875 19.0625 19.625 18.875 20.125 18.875H22.1562V17H24.1875V18.875H34.8125V17H36.8438V18.875H38.875C39.375 18.875 39.8125 19.0625 40.1875 19.4375C40.5625 19.8125 40.75 20.25 40.75 20.75V40.125C40.75 40.625 40.5625 41.0625 40.1875 41.4375C39.8125 41.8125 39.375 42 38.875 42H20.125ZM20.125 40.125H38.875V26.6875H20.125V40.125Z" fill="#FFFBFE"/>
</svg>
