<svg width="59" height="59" viewBox="0 0 59 59" fill="none" xmlns="http://www.w3.org/2000/svg">
<rect width="59" height="59" rx="10" fill="#3AAA35"/>
<path d="M41.4826 34.9777C41.4821 36.6165 40.9219 38.206 39.8949 39.483C38.8678 40.76 37.4354 41.648 35.8348 42L35.0703 39.7064C35.7704 39.591 36.4362 39.3219 37.0197 38.9182C37.6033 38.5145 38.09 37.9864 38.4448 37.372H35.4909C34.8552 37.372 34.2456 37.1195 33.7962 36.67C33.3467 36.2205 33.0942 35.6109 33.0942 34.9753V30.1819C33.0942 29.5462 33.3467 28.9366 33.7962 28.4871C34.2456 28.0377 34.8552 27.7852 35.4909 27.7852H39.0116C38.7192 25.4686 37.5915 23.3384 35.8401 21.7942C34.0887 20.25 31.8341 19.398 29.4991 19.398C27.1642 19.398 24.9095 20.25 23.1581 21.7942C21.4068 23.3384 20.2791 25.4686 19.9866 27.7852H23.5074C24.143 27.7852 24.7526 28.0377 25.2021 28.4871C25.6516 28.9366 25.9041 29.5462 25.9041 30.1819V34.9753C25.9041 35.6109 25.6516 36.2205 25.2021 36.67C24.7526 37.1195 24.143 37.372 23.5074 37.372H19.9123C19.2767 37.372 18.6671 37.1195 18.2176 36.67C17.7681 36.2205 17.5156 35.6109 17.5156 34.9753V28.9835C17.5156 22.365 22.8806 17 29.4991 17C36.1176 17 41.4826 22.365 41.4826 28.9835V34.9777Z" fill="#FFFBFE"/>
</svg>
