<svg width="60" height="60" viewBox="0 0 60 60" fill="none" xmlns="http://www.w3.org/2000/svg">
<rect x="0.92334" y="0.500488" width="59" height="59" rx="10" fill="#B7B7B7"/>
<path fill-rule="evenodd" clip-rule="evenodd" d="M24.1735 19.584C21.8723 19.584 20.0068 21.4495 20.0068 23.7506V24.7923C20.0068 27.0935 21.8723 28.959 24.1735 28.959H25.2152C27.5164 28.959 29.3818 27.0935 29.3818 24.7923V23.7507C29.3818 21.4495 27.5164 19.584 25.2152 19.584H24.1735ZM35.6318 19.584C33.3306 19.584 31.4652 21.4495 31.4652 23.7506V24.7923C31.4652 27.0935 33.3306 28.959 35.6318 28.959H36.6735C38.9747 28.959 40.8402 27.0935 40.8402 24.7923V23.7507C40.8402 21.4495 38.9747 19.584 36.6735 19.584H35.6318ZM24.1735 31.0423C21.8723 31.0423 20.0068 32.9078 20.0068 35.209V36.2506C20.0068 38.5518 21.8723 40.4173 24.1735 40.4173H25.2152C27.5164 40.4173 29.3818 38.5518 29.3818 36.2506V35.209C29.3818 32.9078 27.5164 31.0423 25.2152 31.0423H24.1735ZM35.6318 31.0423C33.3306 31.0423 31.4652 32.9078 31.4652 35.209V36.2506C31.4652 38.5518 33.3306 40.4173 35.6318 40.4173H36.6735C38.9747 40.4173 40.8402 38.5518 40.8402 36.2506V35.209C40.8402 32.9078 38.9747 31.0423 36.6735 31.0423H35.6318Z" fill="#666666"/>
</svg>
