<svg width="12" height="16" viewBox="0 0 12 16" fill="none" xmlns="http://www.w3.org/2000/svg">
<path d="M6 7.8125C6.3625 7.8125 6.67188 7.68438 6.92813 7.42813C7.18438 7.17188 7.3125 6.8625 7.3125 6.5C7.3125 6.1375 7.18438 5.82812 6.92813 5.57187C6.67188 5.31562 6.3625 5.1875 6 5.1875C5.6375 5.1875 5.32812 5.31562 5.07187 5.57187C4.81562 5.82812 4.6875 6.1375 4.6875 6.5C4.6875 6.8625 4.81562 7.17188 5.07187 7.42813C5.32812 7.68438 5.6375 7.8125 6 7.8125ZM6 15.5C3.9875 13.7875 2.48438 12.1969 1.49063 10.7281C0.496875 9.25937 0 7.9 0 6.65C0 4.775 0.603125 3.28125 1.80937 2.16875C3.01562 1.05625 4.4125 0.5 6 0.5C7.5875 0.5 8.98438 1.05625 10.1906 2.16875C11.3969 3.28125 12 4.775 12 6.65C12 7.9 11.5031 9.25937 10.5094 10.7281C9.51563 12.1969 8.0125 13.7875 6 15.5Z" fill="black"/>
</svg>
