<svg width="59" height="59" viewBox="0 0 59 59" fill="none" xmlns="http://www.w3.org/2000/svg">
<rect width="59" height="58.9998" rx="10" fill="#EC7948"/>
<path fill-rule="evenodd" clip-rule="evenodd" d="M36.6405 17H22.2031C21.7265 17 21.2734 17.1875 20.9375 17.5234C20.0781 18.3828 18.3828 20.0781 17.5234 20.9375C17.1875 21.2734 17 21.7343 17 22.2031V40.2108C17 40.6873 17.1875 41.1404 17.5234 41.4686C17.8516 41.8045 18.3125 41.992 18.7812 41.992H32.1796V37.742C30.5468 36.4374 29.4999 34.4217 29.4999 32.1718C29.4999 28.2265 32.6952 25.0312 36.6405 25.0312C37.2577 25.0312 37.8514 25.1093 38.4295 25.2577V18.789C38.4295 17.7969 37.6248 17 36.6405 17ZM26.8202 33.9608H21.4609C20.9687 33.9608 20.5703 33.5624 20.5703 33.0702C20.5703 32.578 20.9687 32.1796 21.4609 32.1796H26.8202C27.3124 32.1796 27.7109 32.578 27.7109 33.0702C27.7109 33.5624 27.3124 33.9608 26.8202 33.9608ZM26.8202 29.4999H21.4609C20.9687 29.4999 20.5703 29.1015 20.5703 28.6093C20.5703 28.1171 20.9687 27.7187 21.4609 27.7187H26.8202C27.3124 27.7187 27.7109 28.1171 27.7109 28.6093C27.7109 29.1015 27.3124 29.4999 26.8202 29.4999ZM29.4999 25.039H21.4609C20.9687 25.039 20.5703 24.6406 20.5703 24.1484C20.5703 23.6562 20.9687 23.2578 21.4609 23.2578H29.4999C29.9921 23.2578 30.3905 23.6562 30.3905 24.1484C30.3905 24.6406 29.9921 25.039 29.4999 25.039ZM36.6405 39.3201C37.5858 39.3201 38.492 39.1326 39.3201 38.8045V41.9998L36.6405 41.1092L33.9608 41.9998V38.8045C34.8124 39.1405 35.703 39.3201 36.6405 39.3201Z" fill="white"/>
<path fill-rule="evenodd" clip-rule="evenodd" d="M42.0002 32.1796C42.0236 35.0936 39.5627 37.5624 36.6409 37.5389C33.7503 37.5702 31.2503 35.1015 31.2815 32.1796C31.2815 29.2265 33.68 26.8203 36.6409 26.8203C39.5237 26.8046 42.0158 29.1874 42.0002 32.1796Z" fill="white"/>
</svg>
