<svg width="35" height="32" viewBox="0 0 35 32" fill="none" xmlns="http://www.w3.org/2000/svg">
<path d="M35 3.79522V24.5902C35 26.2867 33.6183 27.8433 31.9218 28.0532L31.3797 28.1231C28.5114 28.5079 24.4713 29.6972 21.2183 31.0614C20.0815 31.5336 18.8222 30.6766 18.8222 29.4348V5.10694C18.8222 4.45982 19.1895 3.86518 19.7666 3.55037C22.9672 1.81891 27.8118 0.279832 31.0998 0H31.2048C33.3035 0 35 1.69648 35 3.79522ZM15.2509 3.55037C12.0503 1.81891 7.20568 0.279832 3.91765 0H3.79522C1.69648 0 0 1.69648 0 3.79522V24.5902C0 26.2867 1.38167 27.8433 3.07815 28.0532L3.62033 28.1231C6.48861 28.5079 10.5287 29.6972 13.7817 31.0614C14.9185 31.5336 16.1778 30.6766 16.1778 29.4348V5.10694C16.1801 4.78758 16.095 4.47368 15.9316 4.19928C15.7682 3.92488 15.5328 3.70046 15.2509 3.55037ZM5.26434 8.84969H9.19948C9.54737 8.84969 9.88101 8.98789 10.127 9.23388C10.373 9.47988 10.5112 9.81352 10.5112 10.1614C10.5112 10.5093 10.373 10.8429 10.127 11.0889C9.88101 11.3349 9.54737 11.4731 9.19948 11.4731H5.26434C4.91645 11.4731 4.58281 11.3349 4.33682 11.0889C4.09083 10.8429 3.95263 10.5093 3.95263 10.1614C3.95263 9.81352 4.09083 9.47988 4.33682 9.23388C4.58281 8.98789 4.91645 8.84969 5.26434 8.84969ZM10.5112 16.72H5.26434C4.91645 16.72 4.58281 16.5818 4.33682 16.3358C4.09083 16.0898 3.95263 15.7561 3.95263 15.4083C3.95263 15.0604 4.09083 14.7267 4.33682 14.4807C4.58281 14.2347 4.91645 14.0965 5.26434 14.0965H10.5112C10.8591 14.0965 11.1927 14.2347 11.4387 14.4807C11.6847 14.7267 11.8229 15.0604 11.8229 15.4083C11.8229 15.7561 11.6847 16.0898 11.4387 16.3358C11.1927 16.5818 10.8591 16.72 10.5112 16.72Z" fill="#FAFAFA"/>
</svg>
