<svg width="32" height="35" viewBox="0 0 32 35" fill="none" xmlns="http://www.w3.org/2000/svg">
<path d="M24.4663 0.103095C23.9588 0.0330914 23.5038 0.470615 23.5038 0.978143V11.5137C23.5038 12.8438 22.7162 14.0514 21.4912 14.5939C20.2661 15.1189 18.8485 14.8914 17.8685 13.9814L16.3459 12.5813C16.1849 12.4297 15.972 12.3452 15.7509 12.3452C15.5297 12.3452 15.3169 12.4297 15.1558 12.5813L13.6332 13.9814C13.0032 14.5764 12.1807 14.8739 11.3581 14.8739C10.8943 14.8756 10.4353 14.7802 10.0105 14.5939C8.78548 14.0514 7.99793 12.8438 7.99793 11.5137V0.978143C7.99793 0.470615 7.54291 0.0330914 7.03538 0.103095C2.13512 0.715629 0 4.02331 0 8.74857V26.2495C0 31.4998 2.62514 35 8.75048 35H22.7512C28.8766 35 31.5017 31.4998 31.5017 26.2495V8.74857C31.5017 4.02331 29.3666 0.715629 24.4663 0.103095ZM25.3764 29.3122H10.5006C9.78303 29.3122 9.188 28.7172 9.188 27.9996C9.188 27.2821 9.78303 26.687 10.5006 26.687H25.3764C26.0939 26.687 26.689 27.2821 26.689 27.9996C26.689 28.7172 26.0939 29.3122 25.3764 29.3122ZM25.3764 22.3118H17.9385C17.2209 22.3118 16.6259 21.7168 16.6259 20.9992C16.6259 20.2817 17.2209 19.6867 17.9385 19.6867H25.3764C26.0939 19.6867 26.689 20.2817 26.689 20.9992C26.689 21.7168 26.0939 22.3118 25.3764 22.3118Z" fill="#FAFAFA"/>
</svg>
