<svg width="59" height="59" viewBox="0 0 59 59" fill="none" xmlns="http://www.w3.org/2000/svg">
<rect width="59" height="59" rx="10" fill="#106FA4"/>
<path d="M20.2002 42V35.2091H23.836V42H20.2002ZM26.6004 42V26.5853C25.7791 27.1663 25.1181 27.8724 24.6173 28.7037C24.1165 29.5351 23.8661 30.6919 23.8661 32.1743H21.5824C21.5824 29.2496 22.3286 27.1012 23.821 25.729C25.3134 24.3568 27.3717 23.6707 29.9959 23.6707C32.1193 23.6707 33.7369 23.24 34.8486 22.3786C35.9604 21.5172 36.5163 20.0749 36.5163 18.0517H38.8C38.8 20.0549 38.3643 21.6825 37.4929 22.9345C36.6215 24.1865 35.2943 25.0629 33.5115 25.5637V42H31.2278V34.2476H28.8841V42H26.6004ZM29.9959 21.8678C29.3348 21.8678 28.7639 21.6274 28.2831 21.1466C27.8024 20.6659 27.562 20.095 27.562 19.4339C27.562 18.7528 27.7973 18.1769 28.2681 17.7061C28.7389 17.2354 29.3048 17 29.9658 17C30.6269 17 31.1978 17.2354 31.6786 17.7061C32.1593 18.1769 32.3997 18.7528 32.3997 19.4339C32.3997 20.095 32.1643 20.6659 31.6936 21.1466C31.2228 21.6274 30.6569 21.8678 29.9959 21.8678V21.8678Z" fill="#FFFBFE"/>
</svg>
