<svg width="59" height="59" viewBox="0 0 59 59" fill="none" xmlns="http://www.w3.org/2000/svg">
<rect width="59" height="59" rx="10" fill="#8766B0"/>
<path d="M28.329 38.1329L22.719 34.8377C22.3558 34.6017 22.079 34.3203 21.8883 33.9935C21.6977 33.6667 21.6024 33.2945 21.6024 32.8769V26.341C21.6024 25.9234 21.6977 25.5512 21.8883 25.2244C22.079 24.8976 22.3558 24.6071 22.719 24.3529L28.3562 21.0305C28.7193 20.8126 29.1006 20.7037 29.5 20.7037C29.8994 20.7037 30.2898 20.8126 30.671 21.0305L36.3083 24.3529C36.6532 24.6071 36.921 24.8976 37.1117 25.2244C37.3023 25.5512 37.3976 25.9234 37.3976 26.341V32.8769C37.3976 33.2945 37.3023 33.6667 37.1117 33.9935C36.921 34.3203 36.6442 34.6017 36.281 34.8377L30.5893 38.1329C30.2081 38.3508 29.8268 38.4597 29.4455 38.4597C29.0643 38.4597 28.6921 38.3508 28.329 38.1329V38.1329ZM17 22.6373V20.4858C17 19.5236 17.3404 18.7021 18.0212 18.0212C18.7021 17.3404 19.5236 17 20.4858 17H22.6373V19.0969H20.4858C20.1227 19.0969 19.8005 19.2377 19.5191 19.5191C19.2377 19.8005 19.0969 20.1227 19.0969 20.4858V22.6373H17ZM20.4858 42C19.5236 42 18.7021 41.6596 18.0212 40.9788C17.3404 40.2979 17 39.4764 17 38.5142V36.3627H19.0969V38.5142C19.0969 38.8773 19.2377 39.1995 19.5191 39.4809C19.8005 39.7623 20.1227 39.903 20.4858 39.903H22.6373V42H20.4858ZM36.3627 41.8911V39.7941H38.5142C38.8773 39.7941 39.1995 39.6534 39.4809 39.372C39.7623 39.0906 39.903 38.7683 39.903 38.4052V36.2538H42V38.4052C42 39.3675 41.6596 40.189 40.9788 40.8698C40.2979 41.5507 39.4764 41.8911 38.5142 41.8911H36.3627ZM39.903 22.6373V20.4858C39.903 20.1227 39.7623 19.8005 39.4809 19.5191C39.1995 19.2377 38.8773 19.0969 38.5142 19.0969H36.3627V17H38.5142C39.4764 17 40.2979 17.3404 40.9788 18.0212C41.6596 18.7021 42 19.5236 42 20.4858V22.6373H39.903ZM24.7614 25.7418L23.89 26.2593V27.3486L28.6285 30.0991V35.6819L29.5 36.1993L30.3715 35.6819V30.0991L35.1373 27.3486V26.2593L34.2386 25.7418L29.5 28.5196L24.7614 25.7418Z" fill="#FFFBFE"/>
</svg>
