<svg width="60" height="60" viewBox="0 0 60 60" fill="none" xmlns="http://www.w3.org/2000/svg">
<rect x="0.92334" y="0.500488" width="59" height="58.9998" rx="10" fill="#57A1D7"/>
<path fill-rule="evenodd" clip-rule="evenodd" d="M37.5638 17.5005H23.1264C22.6499 17.5005 22.1967 17.688 21.8608 18.0239C21.0014 18.8833 19.3061 20.5786 18.4468 21.438C18.1108 21.7739 17.9233 22.2348 17.9233 22.7036V40.7112C17.9233 41.1878 18.1108 41.6409 18.4468 41.9691C18.7749 42.305 19.2358 42.4925 19.7046 42.4925H33.1029V38.2425C31.4701 36.9378 30.4232 34.9222 30.4232 32.6722C30.4232 28.727 33.6185 25.5317 37.5638 25.5317C38.181 25.5317 38.7747 25.6098 39.3529 25.7582V19.2895C39.3529 18.2974 38.5482 17.5005 37.5638 17.5005ZM27.7436 34.4613H22.3842C21.8921 34.4613 21.4936 34.0629 21.4936 33.5707C21.4936 33.0785 21.8921 32.6801 22.3842 32.6801H27.7436C28.2358 32.6801 28.6342 33.0785 28.6342 33.5707C28.6342 34.0629 28.2358 34.4613 27.7436 34.4613ZM27.7436 30.0004H22.3842C21.8921 30.0004 21.4936 29.602 21.4936 29.1098C21.4936 28.6176 21.8921 28.2192 22.3842 28.2192H27.7436C28.2358 28.2192 28.6342 28.6176 28.6342 29.1098C28.6342 29.602 28.2358 30.0004 27.7436 30.0004ZM30.4232 25.5395H22.3842C21.8921 25.5395 21.4936 25.1411 21.4936 24.6489C21.4936 24.1567 21.8921 23.7583 22.3842 23.7583H30.4232C30.9154 23.7583 31.3139 24.1567 31.3139 24.6489C31.3139 25.1411 30.9154 25.5395 30.4232 25.5395ZM37.5638 39.8206C38.5091 39.8206 39.4154 39.6331 40.2435 39.305V42.5003L37.5638 41.6097L34.8841 42.5003V39.305C35.7357 39.6409 36.6263 39.8206 37.5638 39.8206Z" fill="white"/>
<path fill-rule="evenodd" clip-rule="evenodd" d="M42.9231 32.6802C42.9465 35.5943 40.4856 38.063 37.5637 38.0395C34.6731 38.0708 32.1731 35.6021 32.2044 32.6802C32.2044 29.7271 34.6028 27.3209 37.5637 27.3209C40.4465 27.3053 42.9387 29.688 42.9231 32.6802Z" fill="white"/>
</svg>
