<svg width="60" height="59" viewBox="0 0 60 59" fill="none" xmlns="http://www.w3.org/2000/svg">
<rect x="0.5" width="59" height="59" rx="10" fill="#383838"/>
<path d="M30 42C28.9744 41.188 27.8633 40.5577 26.6667 40.109C25.4701 39.6603 24.2308 39.4359 22.9487 39.4359C22.0513 39.4359 21.1699 39.5534 20.3045 39.7885C19.4391 40.0235 18.6111 40.3547 17.8205 40.7821C17.3718 41.0171 16.9391 41.0064 16.5225 40.75C16.1058 40.4936 15.8975 40.1197 15.8975 39.6282V24.1795C15.8975 23.9444 15.9562 23.7201 16.0737 23.5064C16.1913 23.2927 16.3675 23.1325 16.6026 23.0256C17.5855 22.5128 18.6111 22.1282 19.6795 21.8718C20.7479 21.6154 21.8376 21.4872 22.9487 21.4872C24.1881 21.4872 25.4007 21.6474 26.5866 21.9679C27.7725 22.2885 28.9103 22.7692 30 23.4103V39.6282C31.0898 38.9231 32.2329 38.3942 33.4295 38.0417C34.6261 37.6891 35.8334 37.5128 37.0513 37.5128C37.8205 37.5128 38.6592 37.5876 39.5673 37.7372C40.4755 37.8868 41.3462 38.1966 42.1795 38.6667V22.4808C42.3932 22.5662 42.6015 22.6517 42.8045 22.7372C43.0075 22.8226 43.2052 22.9188 43.3975 23.0256C43.6111 23.1538 43.7821 23.3194 43.9103 23.5224C44.0385 23.7254 44.1026 23.9444 44.1026 24.1795V39.6282C44.1026 40.1197 43.8943 40.4936 43.4776 40.75C43.0609 41.0064 42.6282 41.0171 42.1795 40.7821C41.3889 40.3547 40.5609 40.0235 39.6955 39.7885C38.8302 39.5534 37.9487 39.4359 37.0513 39.4359C35.7693 39.4359 34.5299 39.6603 33.3334 40.109C32.1368 40.5577 31.0257 41.188 30 42ZM31.9231 36.6474V25.3333L40.2564 17V29.4038L31.9231 36.6474Z" fill="#FFFBFE"/>
</svg>
