<svg width="21" height="18" viewBox="0 0 21 18" fill="none" xmlns="http://www.w3.org/2000/svg">
<path d="M20.1832 1.61028L14.1832 17.1103C14.1238 17.2638 14.0275 17.4003 13.9028 17.5077C13.778 17.615 13.6287 17.6899 13.468 17.7257C13.3074 17.7615 13.1404 17.7571 12.9818 17.7129C12.8233 17.6687 12.6781 17.5861 12.5592 17.4723L9.17719 14.2373L7.10319 16.3103C7.03321 16.38 6.94413 16.4275 6.84719 16.4467C6.75025 16.4658 6.64981 16.4559 6.55854 16.418C6.46727 16.3801 6.38927 16.316 6.33439 16.2339C6.27951 16.1517 6.25021 16.0551 6.25019 15.9563V11.4373L1.05919 6.47228C0.930397 6.34906 0.836876 6.19365 0.788315 6.02215C0.739754 5.85064 0.737916 5.66927 0.782993 5.49682C0.828069 5.32437 0.918421 5.1671 1.04469 5.04129C1.17097 4.91548 1.32857 4.82572 1.50119 4.78128L19.0012 0.28128C19.1791 0.235704 19.3661 0.240004 19.5418 0.293711C19.7174 0.347417 19.8749 0.448454 19.9969 0.585741C20.1188 0.723027 20.2007 0.89126 20.2334 1.07199C20.2661 1.25271 20.2484 1.43895 20.1822 1.61028H20.1832ZM17.7502 2.75028L6.78219 9.90128L8.51719 11.5613L17.7502 2.74928V2.75028Z" fill="#FAFAFA"/>
</svg>
