<svg width="62" height="59" viewBox="0 0 62 59" fill="none" xmlns="http://www.w3.org/2000/svg">
<rect x="0.92334" width="60.2996" height="59" rx="10" fill="#0F8E51"/>
<path d="M26.3287 36.3302H35.7882V34.2444H26.3287V36.3302ZM26.3287 31.3361H35.7882V29.2503H26.3287V31.3361ZM23.6848 42C22.921 42 22.2698 41.7307 21.7312 41.1921C21.1926 40.6535 20.9233 40.0023 20.9233 39.2385V19.7908C20.9233 19.027 21.1926 18.3709 21.7312 17.8226C22.2698 17.2742 22.921 17 23.6848 17H34.3487L41.223 23.8743V39.2385C41.223 40.0023 40.9488 40.6535 40.4004 41.1921C39.8521 41.7307 39.196 42 38.4322 42H23.6848ZM32.8799 25.255H38.4322L32.8799 19.7908V25.255Z" fill="white"/>
</svg>
