<svg width="61" height="60" viewBox="0 0 61 60" fill="none" xmlns="http://www.w3.org/2000/svg">
<rect x="0.223145" width="60" height="59.8834" rx="10" fill="#106FA4"/>
<path d="M44.912 25.9407L44.3514 26.1576L30.6533 31.4582C30.5936 31.4813 30.531 31.4917 30.4692 31.4902C30.4088 31.4895 30.3492 31.4768 30.2932 31.4544L24.5597 29.1124L16.1106 25.6612L15.5262 25.4227C15.1021 25.249 15.1297 24.6393 15.5679 24.5059L30.2739 20.0208C30.373 19.991 30.4789 19.9932 30.5765 20.0275L44.8963 25.0261C45.3242 25.176 45.3346 25.7768 44.912 25.9407Z" fill="white"/>
<path d="M38.305 38.2463C35.5425 39.6208 33.1103 39.796 30.4694 39.8832C27.8284 39.796 25.3962 39.6208 22.6337 38.2463C19.7304 37.2423 20.3856 35.9997 20.3856 35.9997C20.3856 35.9997 21.8481 30.8527 21.9793 30.0507C22.033 29.7212 22.1932 29.5841 22.3639 29.5371L30.2934 32.7759C30.3501 32.799 30.4097 32.8109 30.4694 32.8116C30.529 32.8109 30.5886 32.799 30.6453 32.7759L38.5748 29.5371C38.7455 29.5841 38.9058 29.7212 38.9594 30.0507C39.0906 30.8527 40.5531 35.9997 40.5531 35.9997C40.5531 35.9997 41.2083 37.2423 38.305 38.2463Z" fill="white"/>
<path d="M19.3521 32.0424C19.3521 34.2801 19.3521 35.2185 19.3521 35.2185H17.4565C17.4565 35.2185 17.4565 34.2808 17.4565 32.0424C17.4565 29.804 18.152 28.6948 18.152 28.6948C17.1673 27.9099 18.152 27.1966 18.152 27.1966V25.3838H18.6559V27.1973C18.6559 27.1973 19.6406 27.9107 18.6559 28.6956C18.6559 28.6956 19.3521 29.8047 19.3521 32.0424Z" fill="white"/>
</svg>
