<svg width="20" height="20" viewBox="0 0 20 20" fill="none" xmlns="http://www.w3.org/2000/svg">
<path d="M1.60643 20C1.17805 20 0.803213 19.85 0.481928 19.55C0.160642 19.25 0 18.9 0 18.5V1.5C0 1.1 0.160642 0.75 0.481928 0.45C0.803213 0.15 1.17805 0 1.60643 0H10.7095L17.1352 6V10.95L9.63855 17.95V20H1.60643ZM11.245 20V18.575L16.6801 13.525L18.2329 14.9L12.7711 20H11.245ZM18.9558 14.225L17.4297 12.825L18.2865 12.05C18.4471 11.9167 18.639 11.85 18.8621 11.85C19.0852 11.85 19.2682 11.9167 19.411 12.05L19.759 12.4C19.9197 12.55 20 12.7292 20 12.9375C20 13.1458 19.9197 13.325 19.759 13.475L18.9558 14.225ZM9.63855 7H15.5288L9.63855 1.5V7Z" fill="#383838"/>
</svg>
